<?xml version="1.0" encoding="UTF-8"?><svg id="_レイヤー_1" xmlns="http://www.w3.org/2000/svg" width="101.75mm" height="57.01mm" viewBox="0 0 288.43 161.61"><defs><style>.cls-1{fill:#ddd;}.cls-2{fill:#547934;}.cls-3{fill:#fff;}.cls-4{fill:#040000;}.cls-5{fill:#e1a45b;}.cls-6{fill:#b96e68;}.cls-7{fill:#334857;}.cls-8{fill:#71aebc;}.cls-9{fill:#a1b35f;}</style></defs><path class="cls-9" d="m269.02,30.18c-3.84-3.84-10.73-3.71-10.73-3.71H47.29c-7.04,0-14.03-.39-20.52,2.34-.67.28-1,.41-.87.29,0,0-8.5.09-8.58,0h-.01c-7.51,6.68-9.88,14.73-10.58,19.99l.05-.29h8.58v64H6.78l-.05-.29c.7,5.26,3.08,13.31,10.58,19.99h.01c.08-.09,8.58,0,8.58,0-.12-.12.2.01.87.29,6.49,2.74,13.48,2.34,20.52,2.34h211s6.89.12,10.73-3.71c3.91-3.91,5.45-8.73,5.45-8.73V38.91s-1.54-4.82-5.45-8.73Z"/><rect class="cls-3" x="91.66" y="26.48" width="157.13" height="108.65"/><path class="cls-5" d="m25.9,29.12h-8.59c-7.37,6.56-9.79,14.43-10.54,19.7h8.59c.75-5.26,3.18-13.14,10.54-19.7Z"/><path class="cls-5" d="m25.9,132.5h-8.59c-7.37-6.56-9.79-14.43-10.54-19.7h8.59c.75,5.26,3.18,13.14,10.54,19.7Z"/><path class="cls-8" d="m69.4,30.3s-11.31,21.24-11.92,50.5c.61,29.26,11.92,50.5,11.92,50.5l22.26-5.66V35.96l-22.26-5.66Z"/><path class="cls-2" d="m15.36,112.8v-63.98H6.77c-.5,3.51-.27,5.86-.27,5.86v52.26s-.22,2.22.23,5.58l.04.29h8.59Z"/><path class="cls-5" d="m265.4,141.26c6.72-1.63,15.38-6.17,16.59-18.57h-7.53c-.44,7.69-2.73,13.24-9.06,18.57Z"/><path class="cls-5" d="m265.4,20.35c6.72,1.63,15.38,6.17,16.59,18.57h-7.53c-.44-7.69-2.73-13.24-9.06-18.57Z"/><rect class="cls-2" x="274.47" y="38.92" width="7.53" height="83.77"/><path class="cls-2" d="m274.47,122.69s-1.54,4.82-5.45,8.73-10.74,3.71-10.74,3.71H47.29c-7.05,0-14.02.39-20.52-2.34-.67-.28-1-.41-.87-.29,0,0-8.5-.08-8.59,0,0,0,0,0,0,0,3.09,2.75,7.04,5.26,12.1,7.25,4.11,1.61,8.5,2.39,12.92,2.39h6.47,0s34.57,0,34.57,0c1.05,5.37,3.42,16.14,5.82,18.59,2.38,2.43,14.62.77,1.5-18.59h167.6c1.35,0,4.03-.14,7.12-.89,6.26-5.27,8.57-10.75,9.04-18.3l.02-.26Z"/><path class="cls-2" d="m274.47,38.91s-1.54-4.82-5.45-8.73c-3.84-3.84-10.74-3.71-10.74-3.71H47.29c-7.05,0-14.02-.39-20.52,2.34-.67.28-1,.41-.87.29,0,0-8.5.08-8.59,0,0,0,0,0,0,0,3.09-2.75,7.04-5.26,12.1-7.25,4.11-1.61,8.5-2.39,12.92-2.39h6.47,0s34.57,0,34.57,0c1.05-5.37,3.42-16.14,5.82-18.59,2.38-2.43,14.62-.77,1.5,18.59h167.6c1.35,0,4.03.14,7.12.89,6.26,5.27,8.57,10.75,9.04,18.3l.02.26Z"/><rect class="cls-8" x="248.79" y="44.31" width="9.49" height="73"/><rect class="cls-6" x="95.66" y="31.8" width="47" height="30" rx="5" ry="5"/><rect class="cls-7" x="110.16" y="35.3" width="2" height="23"/><rect class="cls-7" x="91.66" y="45.8" width="19.5" height="2"/><rect class="cls-1" x="146.66" y="31.5" width="47" height="30" rx="5" ry="5"/><path class="cls-4" d="m169.64,40.12c1.14,0,2.06-.92,2.06-2.06s-.92-2.06-2.06-2.06-2.06.92-2.06,2.06.92,2.06,2.06,2.06Zm-.73.77c-1.58,0-2.87,1.28-2.87,2.87,0,.26.21.48.48.48h6.25c.26,0,.48-.21.48-.48,0-1.58-1.28-2.87-2.87-2.87h-1.47Z"/><path class="cls-4" d="m160.76,57.15c-.7,0-1.04.01-1.54.04.08-.5.11-.85.11-1.62v-6.51c0-.55-.04-.98-.1-1.47.5.02.7.02,1.51.02h2.83c1.86,0,2.9.84,2.9,2.34,0,.73-.22,1.27-.67,1.69-.26.25-.48.36-.95.5.61.13.89.25,1.21.55.49.46.74,1.05.74,1.83,0,1.68-1.12,2.63-3.11,2.63h-2.95Zm2.65-5.64c.91,0,1.45-.49,1.45-1.31,0-.38-.12-.71-.31-.89-.26-.24-.67-.37-1.15-.37h-2.48v2.57h2.5Zm-2.5,4.28h2.58c1.07,0,1.67-.53,1.67-1.5,0-.48-.12-.8-.38-1.04-.3-.26-.76-.41-1.31-.41h-2.55v2.95Z"/><path class="cls-4" d="m167.83,52.71c.35.05.65.07,1.13.07h1.86c.49,0,.79-.02,1.14-.07v1.59c-.4-.06-.65-.07-1.14-.07h-1.86c-.47,0-.73.01-1.13.07v-1.59Z"/><path class="cls-4" d="m175.93,57.15c.07-.47.1-.94.1-1.56v-6.61h-.58c-.44,0-.79.02-1.24.07v-1.52c.37.06.64.07,1.2.07h1.1c.61,0,.79-.01,1.22-.06-.07.71-.1,1.26-.1,1.98v6.07c0,.63.03,1.07.1,1.56h-1.81Z"/><rect class="cls-1" x="95.66" y="99.86" width="47" height="30" rx="5" ry="5"/><path class="cls-4" d="m118.64,108.48c1.14,0,2.06-.92,2.06-2.06s-.92-2.06-2.06-2.06-2.06.92-2.06,2.06.92,2.06,2.06,2.06Zm-.73.77c-1.58,0-2.87,1.28-2.87,2.87,0,.26.21.48.48.48h6.25c.26,0,.48-.21.48-.48,0-1.58-1.28-2.87-2.87-2.87h-1.47Z"/><path class="cls-4" d="m114.64,125.51c-.07-.4-.2-.91-.34-1.26l-.48-1.31h-3.84l-.48,1.31c-.22.58-.26.75-.36,1.26h-1.97c.18-.32.42-.86.64-1.42l2.64-6.92c.23-.6.32-.9.38-1.21h2.09c.06.29.13.48.41,1.21l2.66,6.92c.3.77.44,1.1.61,1.42h-1.97Zm-2.53-7.5c-.05-.13-.08-.28-.22-.67q-.19.56-.23.67l-1.25,3.55h2.97l-1.28-3.55Z"/><path class="cls-4" d="m117.16,121.07c.35.05.65.07,1.13.07h1.86c.49,0,.79-.02,1.14-.07v1.59c-.4-.06-.65-.07-1.14-.07h-1.86c-.47,0-.73.01-1.13.07v-1.59Z"/><path class="cls-4" d="m125.25,125.51c.07-.47.1-.94.1-1.56v-6.61h-.58c-.44,0-.79.02-1.24.07v-1.52c.37.06.64.07,1.2.07h1.1c.61,0,.79-.01,1.22-.06-.07.71-.1,1.26-.1,1.98v6.07c0,.63.02,1.07.1,1.56h-1.81Z"/><rect class="cls-1" x="146.66" y="99.86" width="47" height="30" rx="5" ry="5"/><path class="cls-4" d="m169.64,108.48c1.14,0,2.06-.92,2.06-2.06s-.92-2.06-2.06-2.06-2.06.92-2.06,2.06.92,2.06,2.06,2.06Zm-.73.77c-1.58,0-2.87,1.28-2.87,2.87,0,.26.21.48.48.48h6.25c.26,0,.48-.21.48-.48,0-1.58-1.28-2.87-2.87-2.87h-1.47Z"/><path class="cls-4" d="m160.76,125.51c-.7,0-1.04.01-1.54.04.08-.5.11-.85.11-1.62v-6.51c0-.55-.04-.98-.1-1.47.5.02.7.02,1.51.02h2.83c1.86,0,2.9.84,2.9,2.34,0,.73-.22,1.27-.67,1.69-.26.25-.48.36-.95.5.61.13.89.25,1.21.55.49.46.74,1.05.74,1.83,0,1.68-1.12,2.63-3.11,2.63h-2.95Zm2.65-5.64c.91,0,1.45-.49,1.45-1.31,0-.38-.12-.71-.31-.89-.26-.24-.67-.37-1.15-.37h-2.48v2.57h2.5Zm-2.5,4.28h2.58c1.07,0,1.67-.53,1.67-1.5,0-.48-.12-.8-.38-1.04-.3-.26-.76-.41-1.31-.41h-2.55v2.95Z"/><path class="cls-4" d="m167.83,121.07c.35.05.65.07,1.13.07h1.86c.49,0,.79-.02,1.14-.07v1.59c-.4-.06-.65-.07-1.14-.07h-1.86c-.47,0-.73.01-1.13.07v-1.59Z"/><path class="cls-4" d="m174.57,122.9c.16.55.26.74.56.98.4.31.88.47,1.45.47,1.19,0,1.94-.61,1.94-1.56,0-.55-.24-1.01-.67-1.26-.29-.17-.85-.29-1.38-.29s-.88.01-1.28.06v-1.49c.38.05.65.06,1.16.06,1.2,0,1.91-.55,1.91-1.47,0-.83-.56-1.3-1.58-1.3-.59,0-1.02.13-1.31.37-.24.23-.36.43-.5.92l-1.71-.29c.3-.89.58-1.31,1.14-1.71.61-.44,1.39-.66,2.35-.66,2,0,3.3,1.01,3.3,2.57,0,.72-.31,1.38-.83,1.76-.26.2-.53.3-1.16.47.85.13,1.29.34,1.71.8.4.44.58.95.58,1.65,0,.65-.28,1.31-.72,1.75-.66.64-1.67.97-2.95.97-1.4,0-2.36-.36-3.05-1.14-.3-.33-.46-.65-.67-1.34l1.71-.34Z"/><rect class="cls-1" x="146.66" y="65.79" width="47" height="30" rx="5" ry="5"/><path class="cls-4" d="m169.64,74.41c1.14,0,2.06-.92,2.06-2.06s-.92-2.06-2.06-2.06-2.06.92-2.06,2.06.92,2.06,2.06,2.06Zm-.73.77c-1.58,0-2.87,1.28-2.87,2.87,0,.26.21.48.48.48h6.25c.26,0,.48-.21.48-.48,0-1.58-1.28-2.87-2.87-2.87h-1.47Z"/><path class="cls-4" d="m160.76,91.44c-.7,0-1.04.01-1.54.04.08-.5.11-.85.11-1.62v-6.51c0-.55-.04-.98-.1-1.47.5.02.7.02,1.51.02h2.83c1.86,0,2.9.84,2.9,2.34,0,.73-.22,1.27-.67,1.69-.26.25-.48.36-.95.5.61.13.89.25,1.21.55.49.46.74,1.05.74,1.83,0,1.68-1.12,2.63-3.11,2.63h-2.95Zm2.65-5.64c.91,0,1.45-.49,1.45-1.31,0-.38-.12-.71-.31-.89-.26-.24-.67-.37-1.15-.37h-2.48v2.57h2.5Zm-2.5,4.28h2.58c1.07,0,1.67-.53,1.67-1.5,0-.48-.12-.8-.38-1.04-.3-.26-.76-.41-1.31-.41h-2.55v2.95Z"/><path class="cls-4" d="m167.83,87c.35.05.65.07,1.13.07h1.86c.49,0,.79-.02,1.14-.07v1.59c-.4-.06-.65-.07-1.14-.07h-1.86c-.47,0-.73.01-1.13.07v-1.59Z"/><path class="cls-4" d="m174.56,91.44c-.94,0-1.13.01-1.55.06.07-.68.16-1.1.31-1.54.32-.88.86-1.64,1.64-2.35.42-.37.78-.65,1.98-1.45,1.1-.75,1.44-1.15,1.44-1.76,0-.82-.63-1.32-1.65-1.32-.7,0-1.22.24-1.52.71-.2.29-.29.55-.37,1.1l-1.72-.2c.17-.91.38-1.4.83-1.92.6-.7,1.55-1.07,2.75-1.07,2.1,0,3.39,1.01,3.39,2.65,0,.79-.26,1.37-.85,1.92-.34.31-.46.41-2.01,1.48-.53.37-1.13.88-1.43,1.2-.36.38-.5.62-.68,1.08h3.36c.76,0,1.36-.04,1.75-.1v1.58c-.56-.05-1.04-.07-1.81-.07h-3.85Z"/></svg>