<?xml version="1.0" encoding="UTF-8"?><svg id="_レイヤー_1" xmlns="http://www.w3.org/2000/svg" width="101.75mm" height="57.01mm" viewBox="0 0 288.43 161.6"><defs><style>.cls-1{fill:#e1a45b;}.cls-1,.cls-2,.cls-3,.cls-4,.cls-5,.cls-6,.cls-7,.cls-8,.cls-9,.cls-10,.cls-11{stroke-width:0px;}.cls-2{fill:#547934;}.cls-3{fill:#040000;}.cls-4{fill:#ddd;}.cls-5{fill:#b96e68;}.cls-6{fill:#334857;}.cls-7{fill:#fff;}.cls-8{fill:#71aebc;}.cls-9{fill:#f5d5d0;}.cls-10{fill:#c66;}.cls-11{fill:#a1b35f;}</style></defs><path class="cls-11" d="m269.01,30.18c-3.84-3.84-10.73-3.71-10.73-3.71H47.29c-7.04,0-14.03-.39-20.52,2.34-.67.28-1,.41-.87.29,0,0-8.5.09-8.58,0h0c-7.51,6.68-9.88,14.73-10.58,19.99l.05-.29h8.58v64H6.78l-.05-.29c.7,5.26,3.08,13.31,10.58,19.99h0c.08-.09,8.58,0,8.58,0-.12-.12.2,0,.87.29,6.49,2.74,13.48,2.34,20.52,2.34h210.99s6.89.12,10.73-3.71c3.91-3.91,5.45-8.73,5.45-8.73V38.91s-1.54-4.82-5.45-8.73h0Z"/><rect class="cls-7" x="91.66" y="26.48" width="157.12" height="108.65"/><path class="cls-1" d="m25.9,29.12h-8.59c-7.37,6.56-9.79,14.43-10.54,19.7h8.59c.75-5.26,3.18-13.14,10.54-19.7Z"/><path class="cls-1" d="m25.9,132.49h-8.59c-7.37-6.56-9.79-14.43-10.54-19.7h8.59c.75,5.26,3.18,13.14,10.54,19.7Z"/><path class="cls-8" d="m69.4,30.3s-11.31,21.24-11.92,50.5c.61,29.26,11.92,50.5,11.92,50.5l22.26-5.66V35.96l-22.26-5.66Z"/><path class="cls-2" d="m15.36,112.8v-63.98H6.77c-.5,3.51-.27,5.86-.27,5.86v52.26s-.22,2.22.23,5.58l.04.29h8.59,0Z"/><path class="cls-1" d="m265.39,141.25c6.72-1.63,15.38-6.17,16.59-18.57h-7.53c-.44,7.69-2.73,13.24-9.06,18.57Z"/><path class="cls-1" d="m265.39,20.35c6.72,1.63,15.38,6.17,16.59,18.57h-7.53c-.44-7.69-2.73-13.24-9.06-18.57Z"/><rect class="cls-2" x="274.46" y="38.92" width="7.53" height="83.77"/><path class="cls-2" d="m274.46,122.68s-1.54,4.82-5.45,8.73c-3.84,3.84-10.74,3.71-10.74,3.71H47.29c-7.05,0-14.02.39-20.52-2.34-.67-.28-1-.41-.87-.29,0,0-8.5-.08-8.59,0h0c3.09,2.75,7.04,5.26,12.1,7.25,4.11,1.61,8.5,2.39,12.92,2.39h41.04c1.05,5.37,3.42,16.14,5.82,18.59,2.38,2.43,14.62.77,1.5-18.59h167.59c1.35,0,4.03-.14,7.12-.89,6.26-5.27,8.57-10.75,9.04-18.3,0,0,.02-.26.02-.26Z"/><path class="cls-2" d="m274.46,38.91s-1.54-4.82-5.45-8.73c-3.84-3.84-10.74-3.71-10.74-3.71H47.29c-7.05,0-14.02-.39-20.52,2.34-.67.28-1,.41-.87.29,0,0-8.5.08-8.59,0h0c3.09-2.75,7.04-5.26,12.1-7.25,4.11-1.61,8.5-2.39,12.92-2.39h41.04c1.05-5.37,3.42-16.14,5.82-18.59,2.38-2.43,14.62-.77,1.5,18.59h167.59c1.35,0,4.03.14,7.12.89,6.26,5.27,8.57,10.75,9.04,18.3l.02.26Z"/><rect class="cls-8" x="248.78" y="44.31" width="9.49" height="73"/><rect class="cls-5" x="95.66" y="31.8" width="47" height="30" rx="5" ry="5"/><rect class="cls-6" x="110.16" y="35.3" width="2" height="23"/><rect class="cls-6" x="91.66" y="45.8" width="19.5" height="2"/><rect class="cls-4" x="146.66" y="31.5" width="47" height="30" rx="5" ry="5"/><path class="cls-3" d="m169.64,40.12c1.14,0,2.06-.92,2.06-2.06s-.92-2.06-2.06-2.06-2.06.92-2.06,2.06.92,2.06,2.06,2.06Zm-.73.77c-1.58,0-2.87,1.28-2.87,2.87,0,.26.21.48.48.48h6.25c.26,0,.48-.21.48-.48,0-1.58-1.28-2.87-2.87-2.87h-1.47Z"/><path class="cls-3" d="m160.76,57.15c-.7,0-1.04,0-1.54.04.08-.5.11-.85.11-1.62v-6.51c0-.55-.04-.98-.1-1.47.5.02.7.02,1.51.02h2.83c1.86,0,2.9.84,2.9,2.34,0,.73-.22,1.27-.67,1.69-.26.25-.48.36-.95.5.61.13.89.25,1.21.55.49.46.74,1.05.74,1.83,0,1.68-1.12,2.63-3.11,2.63h-2.95.02Zm2.65-5.64c.91,0,1.45-.49,1.45-1.31,0-.38-.12-.71-.31-.89-.26-.24-.67-.37-1.15-.37h-2.48v2.57h2.5-.01Zm-2.5,4.28h2.58c1.07,0,1.67-.53,1.67-1.5,0-.48-.12-.8-.38-1.04-.3-.26-.76-.41-1.31-.41h-2.55v2.95h0Z"/><path class="cls-3" d="m167.83,52.71c.35.05.65.07,1.13.07h1.86c.49,0,.79-.02,1.14-.07v1.59c-.4-.06-.65-.07-1.14-.07h-1.86c-.47,0-.73,0-1.13.07v-1.59Z"/><path class="cls-3" d="m175.93,57.15c.07-.47.1-.94.1-1.56v-6.61h-.58c-.44,0-.79.02-1.24.07v-1.52c.37.06.63.07,1.2.07h1.1c.61,0,.79,0,1.22-.06-.07.71-.1,1.26-.1,1.98v6.07c0,.63.02,1.07.1,1.56h-1.81,0Z"/><rect class="cls-4" x="95.66" y="99.86" width="47" height="30" rx="5" ry="5"/><path class="cls-3" d="m118.64,108.48c1.14,0,2.06-.92,2.06-2.06s-.92-2.06-2.06-2.06-2.06.92-2.06,2.06.92,2.06,2.06,2.06Zm-.73.77c-1.58,0-2.87,1.28-2.87,2.87,0,.26.21.48.48.48h6.25c.26,0,.48-.21.48-.48,0-1.58-1.28-2.87-2.87-2.87h-1.47Z"/><path class="cls-3" d="m114.64,125.5c-.07-.4-.2-.91-.34-1.26l-.48-1.31h-3.84l-.48,1.31c-.22.58-.26.76-.36,1.26h-1.97c.18-.32.42-.86.64-1.42l2.64-6.92c.23-.6.32-.9.38-1.21h2.09c.06.29.13.48.41,1.21l2.66,6.92c.3.77.44,1.1.61,1.42h-1.97.01Zm-2.53-7.5c-.05-.13-.08-.28-.22-.67-.13.37-.2.6-.23.67l-1.25,3.55h2.97l-1.28-3.55h.01Z"/><path class="cls-3" d="m117.16,121.06c.35.05.65.07,1.13.07h1.86c.49,0,.79-.02,1.14-.07v1.59c-.4-.06-.65-.07-1.14-.07h-1.86c-.47,0-.73.01-1.13.07v-1.59Z"/><path class="cls-3" d="m125.25,125.5c.07-.47.1-.94.1-1.56v-6.61h-.58c-.44,0-.79.02-1.24.07v-1.52c.37.06.63.07,1.2.07h1.1c.61,0,.79-.01,1.22-.06-.07.71-.1,1.26-.1,1.98v6.07c0,.63.02,1.07.1,1.56h-1.81.01Z"/><rect class="cls-4" x="146.66" y="99.86" width="47" height="30" rx="5" ry="5"/><path class="cls-3" d="m169.64,108.48c1.14,0,2.06-.92,2.06-2.06s-.92-2.06-2.06-2.06-2.06.92-2.06,2.06.92,2.06,2.06,2.06Zm-.73.77c-1.58,0-2.87,1.28-2.87,2.87,0,.26.21.48.48.48h6.25c.26,0,.48-.21.48-.48,0-1.58-1.28-2.87-2.87-2.87h-1.47Z"/><path class="cls-3" d="m160.76,125.5c-.7,0-1.04.01-1.54.04.08-.5.11-.85.11-1.62v-6.51c0-.55-.04-.98-.1-1.47.5.02.7.02,1.51.02h2.83c1.86,0,2.9.84,2.9,2.34,0,.73-.22,1.27-.67,1.69-.26.25-.48.36-.95.5.61.13.89.25,1.21.55.49.46.74,1.05.74,1.83,0,1.68-1.12,2.63-3.11,2.63h-2.95.02Zm2.65-5.64c.91,0,1.45-.49,1.45-1.31,0-.38-.12-.71-.31-.89-.26-.24-.67-.37-1.15-.37h-2.48v2.57h2.5-.01Zm-2.5,4.28h2.58c1.07,0,1.67-.53,1.67-1.5,0-.48-.12-.8-.38-1.04-.3-.26-.76-.41-1.31-.41h-2.55v2.95h0Z"/><path class="cls-3" d="m167.83,121.06c.35.05.65.07,1.13.07h1.86c.49,0,.79-.02,1.14-.07v1.59c-.4-.06-.65-.07-1.14-.07h-1.86c-.47,0-.73.01-1.13.07v-1.59Z"/><path class="cls-3" d="m174.56,125.5c-.94,0-1.13.01-1.55.06.07-.68.16-1.1.31-1.54.32-.88.86-1.64,1.64-2.35.42-.37.78-.65,1.98-1.45,1.1-.76,1.44-1.15,1.44-1.76,0-.82-.63-1.32-1.65-1.32-.7,0-1.22.24-1.52.71-.2.29-.29.55-.37,1.1l-1.71-.2c.17-.91.38-1.4.83-1.92.6-.7,1.55-1.07,2.75-1.07,2.1,0,3.39,1.01,3.39,2.65,0,.79-.26,1.37-.85,1.92-.33.31-.46.41-2.01,1.48-.53.37-1.13.88-1.43,1.2-.36.38-.5.62-.68,1.08h3.36c.76,0,1.36-.04,1.75-.1v1.58c-.56-.05-1.04-.07-1.81-.07h-3.87Z"/><rect class="cls-9" x="197.67" y="57.15" width="47" height="47" rx="5" ry="5"/><path class="cls-3" d="m220.13,71.21c.43,0,.77-.35.77-.77s-.35-.77-.77-.77-.77.35-.77.77.35.77.77.77Zm-1.15,2.43c.2-.08.3-.3.23-.5s-.3-.3-.5-.23c-.97.37-1.67,1.31-1.67,2.41,0,1.42,1.15,2.57,2.57,2.57.98,0,1.84-.55,2.27-1.36.1-.19.03-.42-.16-.52s-.42-.03-.52.16c-.3.57-.9.95-1.59.95-1,0-1.8-.81-1.8-1.8,0-.77.48-1.43,1.17-1.69h0Zm2.24-1.14l-.03-.16c-.07-.36-.39-.62-.75-.62-.48,0-.85.44-.75.92l.37,1.86c.1.48.52.83,1.01.83h1.62c.11,0,.2.07.24.17l.58,1.56c.1.26.38.4.64.31l.77-.26c.27-.09.41-.38.32-.65s-.38-.41-.65-.32l-.3.1-.41-1.09c-.19-.5-.67-.83-1.2-.83h-1.1l-.15-.77h1.02c.28,0,.51-.23.51-.51s-.23-.51-.51-.51h-1.23v-.03Z"/><path class="cls-3" d="m218.67,87.9c-.23.86-.44,1.33-.8,1.8-.68.84-1.83,1.31-3.27,1.31-1.31,0-2.35-.4-3.08-1.15-.84-.88-1.31-2.23-1.31-3.77s.5-2.97,1.4-3.87c.72-.73,1.8-1.14,3-1.14.94,0,1.64.18,2.3.58.54.34.97.78,1.27,1.31.14.25.23.47.37.92l-1.67.38c-.17-.53-.28-.76-.52-1.03-.41-.49-1.01-.74-1.75-.74-1.7,0-2.73,1.33-2.73,3.54s1.06,3.56,2.73,3.56c.84,0,1.56-.32,1.94-.89.2-.3.3-.55.4-1.1l1.71.3h.01Z"/><path class="cls-3" d="m219.58,86.37c.35.05.65.07,1.13.07h1.86c.49,0,.79-.02,1.14-.07v1.59c-.4-.06-.65-.07-1.14-.07h-1.86c-.47,0-.73.01-1.13.07v-1.59Z"/><path class="cls-3" d="m227.68,90.81c.07-.47.1-.94.1-1.56v-6.61h-.58c-.44,0-.79.02-1.24.07v-1.52c.37.06.63.07,1.2.07h1.1c.61,0,.79-.01,1.22-.06-.07.71-.1,1.26-.1,1.98v6.07c0,.64.02,1.07.1,1.56h-1.81,0Z"/><line class="cls-7" x1="101.3" y1="96.94" x2="137.14" y2="132.77"/><rect class="cls-10" x="117.72" y="89.51" width="3" height="50.68" transform="translate(-46.3 117.94) rotate(-45)"/></svg>