<?xml version="1.0" encoding="UTF-8"?><svg id="_レイヤー_1" xmlns="http://www.w3.org/2000/svg" width="101.75mm" height="57.01mm" viewBox="0 0 288.43 161.6"><defs><style>.cls-1{fill:#a2b460;}.cls-1,.cls-2,.cls-3,.cls-4,.cls-5,.cls-6,.cls-7,.cls-8,.cls-9,.cls-10{stroke-width:0px;}.cls-2{fill:#040000;}.cls-3{fill:#ddd;}.cls-4{fill:#b96e68;}.cls-5{fill:#334857;}.cls-6{fill:#fff;}.cls-7{fill:#e2a55b;}.cls-8{fill:#72afbd;}.cls-9{fill:#c66;}.cls-10{fill:#547935;}</style></defs><path class="cls-1" d="m275.45,30.19c-3.84-3.84-10.73-3.71-10.73-3.71H40.85c-7.04,0-14.02-.39-20.51,2.34-.67.28-1,.41-.87.29,0,0-8.5.09-8.58,0h0C3.36,35.78.99,43.84.29,49.09l.05-.29h8.58v64H.34l-.05-.29c.7,5.26,3.08,13.31,10.58,19.98h0c.08-.09,8.58,0,8.58,0-.12-.12.2,0,.87.29,6.49,2.74,13.48,2.34,20.51,2.34h223.87s6.89.12,10.73-3.71c3.91-3.91,5.45-8.73,5.45-8.73V38.92s-1.54-4.82-5.45-8.73h0Z"/><rect class="cls-6" x="47.07" y="26.49" width="208.14" height="108.64"/><path class="cls-7" d="m19.46,29.13h-8.58C3.51,35.69,1.08,43.56.33,48.82h8.58c.75-5.27,3.17-13.13,10.54-19.69,0,0,0,0,0,0Z"/><path class="cls-7" d="m19.46,132.49h-8.58c-7.37-6.56-9.8-14.43-10.54-19.69h8.58c.75,5.27,3.17,13.13,10.54,19.69Z"/><path class="cls-8" d="m24.8,30.31s-11.31,21.24-11.92,50.5c.61,29.26,11.92,50.5,11.92,50.5l22.27-5.66V35.97s-22.27-5.66-22.27-5.66Z"/><path class="cls-10" d="m8.92,112.8v-63.98H.33c-.5,3.51-.27,5.86-.27,5.86v52.25s-.23,2.22.23,5.58l.04.29s8.59,0,8.59,0Z"/><path class="cls-7" d="m271.83,141.25c6.72-1.63,15.38-6.17,16.59-18.56h-7.53c-.44,7.69-2.73,13.24-9.06,18.56Z"/><path class="cls-7" d="m271.83,20.36c6.72,1.63,15.38,6.17,16.59,18.56h-7.53c-.44-7.69-2.73-13.24-9.06-18.56Z"/><rect class="cls-10" x="280.9" y="38.93" width="7.53" height="83.76"/><path class="cls-10" d="m280.9,122.68s-1.53,4.82-5.44,8.73c-3.91,3.91-10.74,3.71-10.74,3.71H40.85c-7.05,0-14.02.39-20.51-2.34-.67-.28-1-.4-.87-.29,0,0-8.5-.08-8.58,0h0c3.09,2.75,7.04,5.27,12.1,7.26,4.1,1.62,8.5,2.39,12.92,2.39h41.04c1.06,5.37,3.41,16.14,5.82,18.6,2.38,2.43,14.63.77,1.49-18.6h180.48c1.35,0,4.02-.13,7.12-.89,6.26-5.27,8.56-10.75,9.04-18.31l.02-.26h-.02Z"/><path class="cls-10" d="m280.9,38.92s-1.53-4.82-5.44-8.73c-3.84-3.84-10.74-3.71-10.74-3.71H40.85c-7.05,0-14.02-.39-20.51,2.34-.67.28-1,.4-.87.29,0,0-8.5.08-8.58,0h0c3.09-2.75,7.04-5.27,12.1-7.26,4.1-1.62,8.5-2.39,12.92-2.39h41.04c1.06-5.37,3.41-16.14,5.82-18.6,2.38-2.43,14.63-.77,1.49,18.6h180.48c1.35,0,4.02.13,7.12.89,6.26,5.27,8.56,10.75,9.04,18.31l.02.26h-.02Z"/><rect class="cls-8" x="255.22" y="44.32" width="9.49" height="72.99"/><rect class="cls-4" x="51.07" y="31.8" width="47" height="30" rx="5" ry="5"/><rect class="cls-5" x="65.57" y="35.3" width="2" height="23"/><rect class="cls-5" x="47.07" y="45.8" width="19.5" height="2"/><rect class="cls-3" x="51.07" y="99.8" width="47" height="30" rx="5" ry="5"/><path class="cls-2" d="m74.05,108.42c1.14,0,2.06-.92,2.06-2.06s-.92-2.06-2.06-2.06-2.06.92-2.06,2.06.92,2.06,2.06,2.06Zm-.73.77c-1.58,0-2.87,1.28-2.87,2.87,0,.26.21.48.48.48h6.25c.26,0,.48-.21.48-.48,0-1.58-1.28-2.87-2.87-2.87h-1.47Z"/><path class="cls-2" d="m70.05,125.44c-.07-.4-.2-.91-.34-1.26l-.48-1.31h-3.84l-.48,1.31c-.22.58-.26.76-.36,1.26h-1.97c.18-.32.42-.86.64-1.42l2.64-6.92c.23-.6.32-.9.38-1.21h2.09c.06.29.13.48.41,1.21l2.66,6.92c.3.77.44,1.1.61,1.42h-1.97.01Zm-2.53-7.5c-.05-.13-.08-.28-.22-.67-.13.37-.2.6-.23.67l-1.25,3.55h2.97l-1.28-3.55h.01Z"/><path class="cls-2" d="m72.56,121c.35.05.65.07,1.13.07h1.86c.49,0,.79-.02,1.14-.07v1.59c-.4-.06-.65-.07-1.14-.07h-1.86c-.47,0-.73.01-1.13.07v-1.59Z"/><path class="cls-2" d="m80.66,125.44c.07-.47.1-.94.1-1.56v-6.61h-.58c-.44,0-.79.02-1.24.07v-1.52c.37.06.64.07,1.2.07h1.1c.61,0,.79-.01,1.22-.06-.07.71-.1,1.26-.1,1.98v6.07c0,.64.02,1.07.1,1.56h-1.81.01Z"/><rect class="cls-3" x="153.04" y="65.8" width="47" height="30" rx="5" ry="5"/><path class="cls-2" d="m176.02,74.42c1.14,0,2.06-.92,2.06-2.06s-.92-2.06-2.06-2.06-2.06.92-2.06,2.06.92,2.06,2.06,2.06Zm-.73.77c-1.58,0-2.87,1.28-2.87,2.87,0,.26.21.48.48.48h6.25c.26,0,.48-.21.48-.48,0-1.58-1.28-2.87-2.87-2.87h-1.47Z"/><path class="cls-2" d="m173.52,88.53c-.23.86-.44,1.33-.8,1.8-.68.84-1.83,1.31-3.27,1.31-1.31,0-2.35-.4-3.08-1.15-.84-.88-1.31-2.23-1.31-3.77s.5-2.97,1.4-3.87c.72-.73,1.8-1.14,3-1.14.94,0,1.64.18,2.3.58.54.34.97.78,1.27,1.31.14.25.23.47.37.92l-1.67.38c-.17-.53-.28-.76-.52-1.03-.41-.49-1.01-.74-1.75-.74-1.7,0-2.73,1.33-2.73,3.54s1.06,3.56,2.73,3.56c.84,0,1.56-.32,1.94-.89.2-.3.3-.55.4-1.1l1.71.3h.01Z"/><path class="cls-2" d="m174.44,87.01c.35.05.65.07,1.13.07h1.86c.49,0,.79-.02,1.14-.07v1.59c-.4-.06-.65-.07-1.14-.07h-1.86c-.47,0-.73.01-1.13.07v-1.59Z"/><path class="cls-2" d="m181.17,91.45c-.94,0-1.13.01-1.55.06.07-.68.16-1.1.31-1.54.32-.88.86-1.64,1.64-2.35.42-.37.78-.65,1.98-1.45,1.1-.76,1.44-1.15,1.44-1.76,0-.82-.64-1.32-1.65-1.32-.7,0-1.22.24-1.52.71-.2.29-.29.55-.37,1.1l-1.72-.2c.17-.91.38-1.4.83-1.92.6-.7,1.55-1.07,2.75-1.07,2.1,0,3.39,1.01,3.39,2.65,0,.79-.26,1.37-.85,1.92-.34.31-.46.41-2.01,1.48-.53.37-1.13.88-1.43,1.2-.36.38-.5.62-.68,1.08h3.36c.76,0,1.36-.04,1.75-.1v1.58c-.56-.05-1.04-.07-1.81-.07h-3.86Z"/><rect class="cls-3" x="153.04" y="31.8" width="47" height="30" rx="5" ry="5"/><path class="cls-2" d="m176.02,40.42c1.14,0,2.06-.92,2.06-2.06s-.92-2.06-2.06-2.06-2.06.92-2.06,2.06.92,2.06,2.06,2.06Zm-.73.77c-1.58,0-2.87,1.28-2.87,2.87,0,.26.21.48.48.48h6.25c.26,0,.48-.21.48-.48,0-1.58-1.28-2.87-2.87-2.87h-1.47Z"/><path class="cls-2" d="m173.52,54.53c-.23.86-.44,1.33-.8,1.8-.68.84-1.83,1.31-3.27,1.31-1.31,0-2.35-.4-3.08-1.15-.84-.88-1.31-2.23-1.31-3.77s.5-2.97,1.4-3.87c.72-.73,1.8-1.14,3-1.14.94,0,1.64.18,2.3.58.54.34.97.78,1.27,1.31.14.25.23.47.37.92l-1.67.38c-.17-.53-.28-.76-.52-1.03-.41-.49-1.01-.74-1.75-.74-1.7,0-2.73,1.33-2.73,3.54s1.06,3.56,2.73,3.56c.84,0,1.56-.32,1.94-.89.2-.3.3-.55.4-1.1l1.71.3h.01Z"/><path class="cls-2" d="m174.44,53.01c.35.05.65.07,1.13.07h1.86c.49,0,.79-.02,1.14-.07v1.59c-.4-.06-.65-.07-1.14-.07h-1.86c-.47,0-.73,0-1.13.07v-1.59Z"/><path class="cls-2" d="m182.54,57.45c.07-.47.1-.94.1-1.56v-6.61h-.58c-.44,0-.79.02-1.24.07v-1.52c.37.06.64.07,1.2.07h1.1c.61,0,.79,0,1.22-.06-.07.71-.1,1.26-.1,1.98v6.07c0,.64.02,1.07.1,1.56h-1.81,0Z"/><rect class="cls-3" x="204.04" y="31.8" width="47" height="24.5" rx="5" ry="5"/><path class="cls-2" d="m227.53,39.17c1.14,0,2.06-.92,2.06-2.06s-.92-2.06-2.06-2.06-2.06.92-2.06,2.06.92,2.06,2.06,2.06Zm-.73.77c-1.58,0-2.87,1.28-2.87,2.87,0,.26.21.48.48.48h6.25c.26,0,.48-.21.48-.48,0-1.58-1.28-2.87-2.87-2.87h-1.47Z"/><path class="cls-2" d="m218.67,46.49c0-.56-.02-.86-.08-1.3.4.02.64.03,1.27.03h1.81c1.25,0,2.06.26,2.7.88.73.69,1.11,1.73,1.11,3.03s-.4,2.44-1.18,3.18c-.64.6-1.44.87-2.62.87h-1.82c-.61,0-.86,0-1.27.03.06-.41.08-.72.08-1.32,0,0,0-5.4,0-5.4Zm2.92,5.51c.82,0,1.35-.19,1.77-.64.48-.51.73-1.28.73-2.22s-.23-1.66-.69-2.14c-.41-.43-.93-.6-1.8-.6h-1.6v5.6h1.59Z"/><path class="cls-2" d="m226.28,49.48c.29.04.54.06.94.06h1.55c.41,0,.66-.02.95-.06v1.33c-.33-.05-.54-.06-.95-.06h-1.55c-.39,0-.61,0-.94.06v-1.33Z"/><path class="cls-2" d="m233.02,53.17c.06-.39.08-.78.08-1.3v-5.51h-.48c-.37,0-.66.02-1.03.06v-1.27c.31.05.53.06,1,.06h.92c.51,0,.66,0,1.02-.05-.06.59-.08,1.05-.08,1.65v5.06c0,.53.02.89.08,1.3h-1.51Z"/><rect class="cls-3" x="204.04" y="56.3" width="47" height="24.5" rx="5" ry="5"/><path class="cls-2" d="m227.53,63.67c1.14,0,2.06-.92,2.06-2.06s-.92-2.06-2.06-2.06-2.06.92-2.06,2.06.92,2.06,2.06,2.06Zm-.73.77c-1.58,0-2.87,1.28-2.87,2.87,0,.26.21.48.48.48h6.25c.26,0,.48-.21.48-.48,0-1.58-1.28-2.87-2.87-2.87h-1.47Z"/><path class="cls-2" d="m218.67,70.99c0-.56-.02-.86-.08-1.3.4.02.64.03,1.27.03h1.81c1.25,0,2.06.26,2.7.88.73.69,1.11,1.73,1.11,3.03s-.4,2.44-1.18,3.18c-.64.6-1.44.87-2.62.87h-1.82c-.61,0-.86,0-1.27.03.06-.41.08-.72.08-1.32,0,0,0-5.4,0-5.4Zm2.92,5.51c.82,0,1.35-.19,1.77-.64.48-.51.73-1.28.73-2.22s-.23-1.66-.69-2.14c-.41-.43-.93-.6-1.8-.6h-1.6v5.6h1.59Z"/><path class="cls-2" d="m226.28,73.98c.29.04.54.06.94.06h1.55c.41,0,.66-.02.95-.06v1.33c-.33-.05-.54-.06-.95-.06h-1.55c-.39,0-.61,0-.94.06v-1.33Z"/><path class="cls-2" d="m231.88,77.67c-.78,0-.94,0-1.29.05.06-.57.13-.92.26-1.28.27-.73.72-1.37,1.37-1.96.35-.31.65-.54,1.65-1.21.92-.63,1.2-.96,1.2-1.47,0-.68-.53-1.1-1.38-1.1-.58,0-1.02.2-1.27.59-.17.24-.24.46-.31.92l-1.43-.17c.14-.76.32-1.17.69-1.6.5-.58,1.29-.89,2.29-.89,1.75,0,2.83.84,2.83,2.21,0,.66-.22,1.14-.71,1.6-.28.26-.38.34-1.68,1.23-.44.31-.94.73-1.19,1-.3.32-.42.52-.57.9h2.8c.63,0,1.13-.03,1.46-.08v1.32c-.47-.04-.87-.06-1.51-.06h-3.21,0Z"/><rect class="cls-3" x="204.04" y="80.81" width="47" height="24.5" rx="5" ry="5"/><path class="cls-2" d="m227.53,88.18c1.14,0,2.06-.92,2.06-2.06s-.92-2.06-2.06-2.06-2.06.92-2.06,2.06.92,2.06,2.06,2.06Zm-.73.77c-1.58,0-2.87,1.28-2.87,2.87,0,.26.21.48.48.48h6.25c.26,0,.48-.21.48-.48,0-1.58-1.28-2.87-2.87-2.87h-1.47Z"/><path class="cls-2" d="m218.67,95.5c0-.56-.02-.86-.08-1.3.4.02.64.03,1.27.03h1.81c1.25,0,2.06.26,2.7.88.73.69,1.11,1.73,1.11,3.03s-.4,2.44-1.18,3.18c-.64.6-1.44.87-2.62.87h-1.82c-.61,0-.86,0-1.27.03.06-.41.08-.72.08-1.32,0,0,0-5.4,0-5.4Zm2.92,5.51c.82,0,1.35-.19,1.77-.64.48-.51.73-1.28.73-2.22s-.23-1.66-.69-2.14c-.41-.43-.93-.6-1.8-.6h-1.6v5.6h1.59Z"/><path class="cls-2" d="m226.28,98.49c.29.04.54.06.94.06h1.55c.41,0,.66-.02.95-.06v1.33c-.33-.05-.54-.06-.95-.06h-1.55c-.39,0-.61,0-.94.06v-1.33Z"/><path class="cls-2" d="m231.89,100.02c.13.46.22.62.47.82.33.26.73.39,1.21.39.99,0,1.62-.51,1.62-1.3,0-.46-.2-.84-.56-1.05-.24-.14-.71-.24-1.15-.24s-.73.01-1.07.05v-1.24c.32.04.54.05.97.05,1,0,1.59-.46,1.59-1.23,0-.69-.47-1.08-1.32-1.08-.49,0-.85.11-1.09.31-.2.19-.3.36-.42.77l-1.43-.24c.25-.74.48-1.09.95-1.43.51-.37,1.16-.55,1.96-.55,1.67,0,2.75.84,2.75,2.14,0,.6-.26,1.15-.69,1.47-.22.17-.44.25-.97.39.71.11,1.08.28,1.43.67.33.37.48.79.48,1.38,0,.54-.23,1.09-.6,1.46-.55.53-1.39.81-2.46.81-1.17,0-1.97-.3-2.54-.95-.25-.28-.38-.54-.56-1.12l1.43-.28h0Z"/><rect class="cls-3" x="204.04" y="105.31" width="47" height="24.5" rx="5" ry="5"/><path class="cls-2" d="m227.53,112.68c1.14,0,2.06-.92,2.06-2.06s-.92-2.06-2.06-2.06-2.06.92-2.06,2.06.92,2.06,2.06,2.06Zm-.73.77c-1.58,0-2.87,1.28-2.87,2.87,0,.26.21.48.48.48h6.25c.26,0,.48-.21.48-.48,0-1.58-1.28-2.87-2.87-2.87h-1.47Z"/><path class="cls-2" d="m218.67,119.99c0-.56-.02-.86-.08-1.3.4.02.64.03,1.27.03h1.81c1.25,0,2.06.26,2.7.88.73.69,1.11,1.73,1.11,3.03s-.4,2.44-1.18,3.18c-.64.6-1.44.87-2.62.87h-1.82c-.61,0-.86,0-1.27.03.06-.41.08-.72.08-1.32,0,0,0-5.4,0-5.4Zm2.92,5.51c.82,0,1.35-.19,1.77-.64.48-.51.73-1.28.73-2.22s-.23-1.66-.69-2.14c-.41-.43-.93-.6-1.8-.6h-1.6v5.6h1.59Z"/><path class="cls-2" d="m226.28,122.98c.29.04.54.06.94.06h1.55c.41,0,.66-.02.95-.06v1.33c-.33-.05-.54-.06-.95-.06h-1.55c-.39,0-.61,0-.94.06v-1.33Z"/><path class="cls-2" d="m236.93,124.9c-.37-.05-.58-.06-1-.07h-.36v.71c0,.51.02.77.08,1.14h-1.42c.06-.35.08-.66.08-1.16v-.69h-2.77c-.59,0-.91,0-1.25.04v-1.23c.34-.37.45-.5.8-.92l2.37-2.9c.44-.53.6-.74.83-1.1h1.35c-.06.58-.07.93-.07,1.69v3.28h.35c.4,0,.64-.02,1.01-.07v1.28Zm-2.61-3.27c0-.47,0-.79.05-1.2-.2.29-.32.45-.68.89l-1.92,2.38h2.55v-2.07h0Z"/><rect class="cls-3" x="102.04" y="65.8" width="47" height="30" rx="5" ry="5"/><path class="cls-2" d="m125.02,74.42c1.14,0,2.06-.92,2.06-2.06s-.92-2.06-2.06-2.06-2.06.92-2.06,2.06.92,2.06,2.06,2.06Zm-.73.77c-1.58,0-2.87,1.28-2.87,2.87,0,.26.21.48.48.48h6.25c.26,0,.48-.21.48-.48,0-1.58-1.28-2.87-2.87-2.87,0,0-1.47,0-1.47,0Z"/><path class="cls-2" d="m116.13,91.45c-.7,0-1.04.01-1.54.04.08-.5.11-.85.11-1.62v-6.51c0-.55-.04-.98-.1-1.48.5.02.7.02,1.51.02h2.83c1.86,0,2.9.84,2.9,2.34,0,.73-.22,1.27-.67,1.69-.26.25-.48.36-.95.5.61.13.89.25,1.21.55.49.46.74,1.06.74,1.83,0,1.68-1.12,2.63-3.11,2.63h-2.95.02Zm2.65-5.64c.91,0,1.45-.49,1.45-1.31,0-.38-.12-.71-.31-.89-.26-.24-.67-.37-1.15-.37h-2.48v2.57h2.49Zm-2.49,4.28h2.58c1.07,0,1.67-.53,1.67-1.5,0-.48-.12-.8-.38-1.04-.3-.26-.76-.41-1.31-.41h-2.55v2.95h-.01Z"/><path class="cls-2" d="m123.2,87.01c.35.05.65.07,1.13.07h1.86c.49,0,.79-.02,1.14-.07v1.59c-.4-.06-.65-.07-1.14-.07h-1.86c-.47,0-.73.01-1.13.07v-1.59Z"/><path class="cls-2" d="m129.93,91.45c-.94,0-1.13.01-1.55.06.07-.68.16-1.1.31-1.54.32-.88.86-1.64,1.64-2.35.42-.37.78-.65,1.98-1.45,1.1-.76,1.44-1.15,1.44-1.76,0-.82-.64-1.32-1.65-1.32-.7,0-1.22.24-1.52.71-.2.29-.29.55-.37,1.1l-1.72-.2c.17-.91.38-1.4.83-1.92.6-.7,1.55-1.07,2.75-1.07,2.1,0,3.39,1.01,3.39,2.65,0,.79-.26,1.37-.85,1.92-.34.31-.46.41-2.01,1.48-.53.37-1.13.88-1.43,1.2-.36.38-.5.62-.68,1.08h3.36c.76,0,1.36-.04,1.75-.1v1.58c-.56-.05-1.04-.07-1.81-.07h-3.86Z"/><rect class="cls-3" x="102.04" y="31.8" width="47" height="30" rx="5" ry="5"/><path class="cls-2" d="m125.02,40.42c1.14,0,2.06-.92,2.06-2.06s-.92-2.06-2.06-2.06-2.06.92-2.06,2.06.92,2.06,2.06,2.06Zm-.73.77c-1.58,0-2.87,1.28-2.87,2.87,0,.26.21.48.48.48h6.25c.26,0,.48-.21.48-.48,0-1.58-1.28-2.87-2.87-2.87,0,0-1.47,0-1.47,0Z"/><path class="cls-2" d="m116.13,57.45c-.7,0-1.04,0-1.54.04.08-.5.11-.85.11-1.62v-6.51c0-.55-.04-.98-.1-1.48.5.02.7.02,1.51.02h2.83c1.86,0,2.9.84,2.9,2.34,0,.73-.22,1.27-.67,1.69-.26.25-.48.36-.95.5.61.13.89.25,1.21.55.49.46.74,1.06.74,1.83,0,1.68-1.12,2.63-3.11,2.63h-2.95.02Zm2.65-5.64c.91,0,1.45-.49,1.45-1.31,0-.38-.12-.71-.31-.89-.26-.24-.67-.37-1.15-.37h-2.48v2.57h2.49Zm-2.49,4.28h2.58c1.07,0,1.67-.53,1.67-1.5,0-.48-.12-.8-.38-1.04-.3-.26-.76-.41-1.31-.41h-2.55v2.95h-.01Z"/><path class="cls-2" d="m123.2,53.01c.35.05.65.07,1.13.07h1.86c.49,0,.79-.02,1.14-.07v1.59c-.4-.06-.65-.07-1.14-.07h-1.86c-.47,0-.73,0-1.13.07v-1.59Z"/><path class="cls-2" d="m131.3,57.45c.07-.47.1-.94.1-1.56v-6.61h-.58c-.44,0-.79.02-1.24.07v-1.52c.37.06.64.07,1.2.07h1.1c.61,0,.79,0,1.22-.06-.07.71-.1,1.26-.1,1.98v6.07c0,.64.02,1.07.1,1.56h-1.81,0Z"/><rect class="cls-9" x="72.55" y="89.46" width="3" height="50.68" transform="translate(-59.48 85.98) rotate(-45)"/></svg>