<?xml version="1.0" encoding="UTF-8"?><svg id="_レイヤー_1" xmlns="http://www.w3.org/2000/svg" width="101.75mm" height="57.01mm" viewBox="0 0 288.43 161.6"><defs><style>.cls-1{fill:#547935;}.cls-2{fill:#ddd;}.cls-3{fill:#fff;}.cls-4{fill:#72afbd;}.cls-5{isolation:isolate;}.cls-6{fill:#040000;}.cls-7{fill:#b96e68;}.cls-8{fill:#f5d5d0;}.cls-9{fill:#a2b460;}.cls-10{fill:#e2a55b;}</style></defs><path class="cls-9" d="m275.45,30.19c-3.84-3.84-10.73-3.71-10.73-3.71H40.85c-7.04,0-14.02-.39-20.51,2.34-.67.28-1,.41-.87.29,0,0-8.5.09-8.58,0h0C3.36,35.78.99,43.84.29,49.09l.05-.29h8.58v64H.34l-.05-.29c.7,5.26,3.08,13.31,10.58,19.98h0c.08-.09,8.58,0,8.58,0-.12-.12.2,0,.87.29,6.49,2.74,13.48,2.34,20.51,2.34h223.87s6.89.12,10.73-3.71c3.91-3.91,5.45-8.73,5.45-8.73V38.92s-1.54-4.82-5.45-8.73h0Z"/><rect class="cls-3" x="47.07" y="26.49" width="208.14" height="108.64"/><path class="cls-10" d="m19.46,29.13h-8.58C3.51,35.69,1.08,43.56.33,48.82h8.58c.75-5.27,3.17-13.13,10.54-19.69,0,0,0,0,0,0Z"/><path class="cls-10" d="m19.46,132.49h-8.58c-7.37-6.56-9.8-14.43-10.54-19.69h8.58c.75,5.27,3.17,13.13,10.54,19.69Z"/><path class="cls-4" d="m24.8,30.31s-11.31,21.24-11.92,50.5c.61,29.26,11.92,50.5,11.92,50.5l22.27-5.66V35.97s-22.27-5.66-22.27-5.66Z"/><path class="cls-1" d="m8.92,112.8v-63.98H.33c-.5,3.51-.27,5.86-.27,5.86v52.25s-.23,2.22.23,5.58l.04.29s8.59,0,8.59,0Z"/><path class="cls-10" d="m271.83,141.25c6.72-1.63,15.38-6.17,16.59-18.56h-7.53c-.44,7.69-2.73,13.24-9.06,18.56Z"/><path class="cls-10" d="m271.83,20.36c6.72,1.63,15.38,6.17,16.59,18.56h-7.53c-.44-7.69-2.73-13.24-9.06-18.56Z"/><rect class="cls-1" x="280.9" y="38.93" width="7.53" height="83.76"/><path class="cls-1" d="m280.9,122.68s-1.53,4.82-5.44,8.73c-3.91,3.91-10.74,3.71-10.74,3.71H40.85c-7.05,0-14.02.39-20.51-2.34-.67-.28-1-.4-.87-.29,0,0-8.5-.08-8.58,0h0c3.09,2.75,7.04,5.27,12.1,7.26,4.1,1.62,8.5,2.39,12.92,2.39h41.04c1.06,5.37,3.41,16.14,5.82,18.6,2.38,2.43,14.63.77,1.49-18.6h180.48c1.35,0,4.02-.13,7.12-.89,6.26-5.27,8.56-10.75,9.04-18.31l.02-.26h-.02Z"/><path class="cls-1" d="m280.9,38.92s-1.53-4.82-5.44-8.73c-3.84-3.84-10.74-3.71-10.74-3.71H40.85c-7.05,0-14.02-.39-20.51,2.34-.67.28-1,.4-.87.29,0,0-8.5.08-8.58,0h0c3.09-2.75,7.04-5.27,12.1-7.26,4.1-1.62,8.5-2.39,12.92-2.39h41.04c1.06-5.37,3.41-16.14,5.82-18.6,2.38-2.43,14.63-.77,1.49,18.6h180.48c1.35,0,4.02.13,7.12.89,6.26,5.27,8.56,10.75,9.04,18.31l.02.26h-.02Z"/><rect class="cls-4" x="255.22" y="44.32" width="9.49" height="72.99"/><rect class="cls-7" x="51.07" y="31.8" width="47" height="30" rx="5" ry="5"/><rect class="cls-6" x="65.57" y="35.3" width="2" height="23"/><rect class="cls-6" x="47.07" y="45.8" width="19.5" height="2"/><rect class="cls-2" x="204.04" y="99.8" width="47" height="30" rx="5" ry="5"/><path class="cls-6" d="m227.53,108.42c1.14,0,2.06-.92,2.06-2.06s-.92-2.06-2.06-2.06-2.06.92-2.06,2.06.92,2.06,2.06,2.06Zm-.73.77c-1.58,0-2.87,1.28-2.87,2.87,0,.26.21.48.48.48h6.25c.26,0,.48-.21.48-.48,0-1.58-1.28-2.87-2.87-2.87h-1.47Z"/><g class="cls-5"><g class="cls-5"><path class="cls-6" d="m216.9,117.42c0-.67-.02-1.03-.1-1.56.48.02.77.04,1.52.04h2.17c1.5,0,2.47.31,3.24,1.06.88.83,1.33,2.08,1.33,3.63s-.48,2.93-1.42,3.81c-.77.72-1.73,1.04-3.14,1.04h-2.18c-.73,0-1.03.01-1.52.04.07-.49.1-.86.1-1.58v-6.48Zm3.5,6.61c.98,0,1.62-.23,2.12-.77.58-.61.88-1.54.88-2.66s-.28-1.99-.83-2.57c-.49-.52-1.12-.72-2.16-.72h-1.92v6.72h1.91Z"/><path class="cls-6" d="m226.03,121c.35.05.65.07,1.13.07h1.86c.49,0,.79-.02,1.14-.07v1.59c-.4-.06-.65-.07-1.14-.07h-1.86c-.47,0-.73.01-1.13.07v-1.59Z"/><path class="cls-6" d="m232.76,125.44c-.94,0-1.13.01-1.55.06.07-.68.16-1.1.31-1.54.32-.88.86-1.64,1.64-2.35.42-.37.78-.65,1.98-1.45,1.1-.76,1.44-1.15,1.44-1.76,0-.82-.63-1.32-1.65-1.32-.7,0-1.22.24-1.52.71-.2.29-.29.55-.37,1.1l-1.72-.2c.17-.91.38-1.4.83-1.92.6-.7,1.55-1.07,2.75-1.07,2.1,0,3.39,1.01,3.39,2.65,0,.79-.26,1.37-.85,1.92-.33.31-.46.41-2.01,1.48-.53.37-1.13.88-1.43,1.2-.36.38-.5.62-.68,1.08h3.36c.76,0,1.36-.04,1.75-.1v1.58c-.56-.05-1.04-.07-1.81-.07h-3.85Z"/></g></g><rect class="cls-8" x="204.04" y="31.8" width="47" height="47" rx="5" ry="5"/><path class="cls-6" d="m226.5,45.86c.43,0,.77-.35.77-.77s-.35-.77-.77-.77-.77.35-.77.77.35.77.77.77Zm-1.15,2.43c.2-.08.3-.3.23-.5s-.3-.3-.5-.23c-.97.37-1.67,1.31-1.67,2.41,0,1.42,1.15,2.57,2.57,2.57.98,0,1.84-.55,2.27-1.36.1-.19.03-.42-.16-.52s-.42-.03-.52.16c-.3.57-.9.95-1.59.95-1,0-1.8-.81-1.8-1.8,0-.77.48-1.43,1.17-1.69h0Zm2.24-1.14l-.03-.16c-.07-.36-.39-.62-.75-.62-.48,0-.85.44-.75.92l.37,1.86c.1.48.52.83,1.01.83h1.62c.11,0,.2.07.24.17l.58,1.56c.1.26.38.4.64.31l.77-.26c.27-.09.41-.38.32-.65s-.38-.41-.65-.32l-.3.1-.41-1.09c-.19-.5-.67-.83-1.2-.83h-1.1l-.15-.77h1.02c.28,0,.51-.23.51-.51s-.23-.51-.51-.51h-1.23v-.03Z"/><g class="cls-5"><g class="cls-5"><path class="cls-6" d="m216.9,57.44c0-.67-.02-1.03-.1-1.56.48.02.77.04,1.52.04h2.17c1.5,0,2.47.31,3.24,1.06.88.83,1.33,2.07,1.33,3.63s-.48,2.93-1.42,3.81c-.77.72-1.73,1.04-3.14,1.04h-2.18c-.73,0-1.03.01-1.52.04.07-.49.1-.86.1-1.58v-6.48Zm3.5,6.61c.98,0,1.62-.23,2.12-.77.58-.61.88-1.54.88-2.66s-.28-1.99-.83-2.57c-.49-.52-1.12-.72-2.16-.72h-1.92v6.72h1.91Z"/><path class="cls-6" d="m226.03,61.02c.35.05.65.07,1.13.07h1.86c.49,0,.79-.02,1.14-.07v1.59c-.4-.06-.65-.07-1.14-.07h-1.86c-.47,0-.73.01-1.13.07v-1.59Z"/><path class="cls-6" d="m234.13,65.46c.07-.47.1-.94.1-1.56v-6.61h-.58c-.44,0-.79.02-1.24.07v-1.52c.37.06.64.07,1.2.07h1.1c.61,0,.79-.01,1.22-.06-.07.71-.1,1.26-.1,1.98v6.07c0,.64.02,1.07.1,1.56h-1.81Z"/></g></g><rect class="cls-2" x="153.04" y="99.8" width="47" height="30" rx="5" ry="5"/><path class="cls-6" d="m176.54,108.42c1.14,0,2.06-.92,2.06-2.06s-.92-2.06-2.06-2.06-2.06.92-2.06,2.06.92,2.06,2.06,2.06Zm-.73.77c-1.58,0-2.87,1.28-2.87,2.87,0,.26.21.48.48.48h6.25c.26,0,.48-.21.48-.48,0-1.58-1.28-2.87-2.87-2.87h-1.47Z"/><g class="cls-5"><g class="cls-5"><path class="cls-6" d="m174.03,122.52c-.23.86-.44,1.33-.8,1.8-.68.84-1.83,1.31-3.27,1.31-1.31,0-2.35-.4-3.08-1.15-.84-.88-1.31-2.23-1.31-3.77s.5-2.97,1.4-3.87c.72-.73,1.8-1.14,3-1.14.94,0,1.64.18,2.3.58.54.34.97.78,1.27,1.31.14.25.23.47.37.92l-1.67.38c-.17-.53-.28-.76-.52-1.03-.41-.49-1.01-.74-1.75-.74-1.7,0-2.73,1.33-2.73,3.54s1.05,3.56,2.73,3.56c.84,0,1.56-.32,1.94-.89.2-.3.3-.55.4-1.1l1.71.3Z"/><path class="cls-6" d="m174.95,121c.35.05.65.07,1.13.07h1.86c.49,0,.79-.02,1.14-.07v1.59c-.4-.06-.65-.07-1.14-.07h-1.86c-.47,0-.73.01-1.13.07v-1.59Z"/><path class="cls-6" d="m181.68,125.44c-.94,0-1.13.01-1.55.06.07-.68.16-1.1.31-1.54.32-.88.86-1.64,1.64-2.35.42-.37.78-.65,1.98-1.45,1.1-.76,1.44-1.15,1.44-1.76,0-.82-.63-1.32-1.65-1.32-.7,0-1.22.24-1.52.71-.2.29-.29.55-.37,1.1l-1.72-.2c.17-.91.38-1.4.83-1.92.6-.7,1.55-1.07,2.75-1.07,2.1,0,3.39,1.01,3.39,2.65,0,.79-.26,1.37-.85,1.92-.33.31-.46.41-2.01,1.48-.53.37-1.13.88-1.43,1.2-.36.38-.5.62-.68,1.08h3.36c.76,0,1.36-.04,1.75-.1v1.58c-.56-.05-1.04-.07-1.81-.07h-3.85Z"/></g></g><rect class="cls-8" x="153.04" y="31.8" width="47" height="47" rx="5" ry="5"/><path class="cls-6" d="m175.51,45.86c.43,0,.77-.35.77-.77s-.35-.77-.77-.77-.77.35-.77.77.35.77.77.77Zm-1.15,2.43c.2-.08.3-.3.23-.5s-.3-.3-.5-.23c-.97.37-1.67,1.31-1.67,2.41,0,1.42,1.15,2.57,2.57,2.57.98,0,1.84-.55,2.27-1.36.1-.19.03-.42-.16-.52s-.42-.03-.52.16c-.3.57-.9.95-1.59.95-1,0-1.8-.81-1.8-1.8,0-.77.48-1.43,1.17-1.69h0Zm2.24-1.14l-.03-.16c-.07-.36-.39-.62-.75-.62-.48,0-.85.44-.75.92l.37,1.86c.1.48.52.83,1.01.83h1.62c.11,0,.2.07.24.17l.58,1.56c.1.26.38.4.64.31l.77-.26c.27-.09.41-.38.32-.65s-.38-.41-.65-.32l-.3.1-.41-1.09c-.19-.5-.67-.83-1.2-.83h-1.1l-.15-.77h1.02c.28,0,.51-.23.51-.51s-.23-.51-.51-.51h-1.23v-.03Z"/><g class="cls-5"><g class="cls-5"><path class="cls-6" d="m174.03,62.55c-.23.86-.44,1.33-.8,1.8-.68.84-1.83,1.31-3.27,1.31-1.31,0-2.35-.4-3.08-1.15-.84-.88-1.31-2.23-1.31-3.77s.5-2.97,1.4-3.87c.72-.73,1.8-1.14,3-1.14.94,0,1.64.18,2.3.58.54.34.97.78,1.27,1.31.14.25.23.47.37.92l-1.67.38c-.17-.53-.28-.76-.52-1.03-.41-.49-1.01-.74-1.75-.74-1.7,0-2.73,1.33-2.73,3.54s1.05,3.56,2.73,3.56c.84,0,1.56-.32,1.94-.89.2-.3.3-.55.4-1.1l1.71.3Z"/><path class="cls-6" d="m174.95,61.02c.35.05.65.07,1.13.07h1.86c.49,0,.79-.02,1.14-.07v1.59c-.4-.06-.65-.07-1.14-.07h-1.86c-.47,0-.73.01-1.13.07v-1.59Z"/><path class="cls-6" d="m183.05,65.46c.07-.47.1-.94.1-1.56v-6.61h-.58c-.44,0-.79.02-1.24.07v-1.52c.37.06.64.07,1.2.07h1.1c.61,0,.79-.01,1.22-.06-.07.71-.1,1.26-.1,1.98v6.07c0,.64.02,1.07.1,1.56h-1.81Z"/></g></g><rect class="cls-8" x="102.05" y="31.8" width="47" height="47" rx="5" ry="5"/><path class="cls-6" d="m124.52,45.86c.43,0,.77-.35.77-.77s-.35-.77-.77-.77-.77.35-.77.77.35.77.77.77Zm-1.15,2.43c.2-.08.3-.3.23-.5s-.3-.3-.5-.23c-.97.37-1.67,1.31-1.67,2.41,0,1.42,1.15,2.57,2.57,2.57.98,0,1.84-.55,2.27-1.36.1-.19.03-.42-.16-.52s-.42-.03-.52.16c-.3.57-.9.95-1.59.95-1,0-1.8-.81-1.8-1.8,0-.77.48-1.43,1.17-1.69h0Zm2.24-1.14l-.03-.16c-.07-.36-.39-.62-.75-.62-.48,0-.85.44-.75.92l.37,1.86c.1.48.52.83,1.01.83h1.62c.11,0,.2.07.24.17l.58,1.56c.1.26.38.4.64.31l.77-.26c.27-.09.41-.38.32-.65s-.38-.41-.65-.32l-.3.1-.41-1.09c-.19-.5-.67-.83-1.2-.83h-1.1l-.15-.77h1.02c.28,0,.51-.23.51-.51s-.23-.51-.51-.51h-1.23v-.03Z"/><g class="cls-5"><g class="cls-5"><path class="cls-6" d="m116.68,65.46c-.7,0-1.04.01-1.54.04.08-.5.11-.85.11-1.62v-6.51c0-.55-.04-.98-.1-1.48.5.02.7.02,1.51.02h2.83c1.86,0,2.9.84,2.9,2.34,0,.73-.22,1.27-.67,1.69-.26.25-.48.36-.95.5.61.13.89.25,1.21.55.49.46.74,1.06.74,1.84,0,1.68-1.12,2.63-3.11,2.63h-2.95Zm2.65-5.64c.91,0,1.45-.49,1.45-1.31,0-.38-.12-.71-.31-.89-.26-.24-.67-.37-1.15-.37h-2.48v2.57h2.49Zm-2.49,4.28h2.58c1.07,0,1.67-.53,1.67-1.5,0-.48-.12-.8-.38-1.04-.3-.26-.76-.41-1.31-.41h-2.55v2.95Z"/><path class="cls-6" d="m123.74,61.02c.35.05.65.07,1.13.07h1.86c.49,0,.79-.02,1.14-.07v1.59c-.4-.06-.65-.07-1.14-.07h-1.86c-.47,0-.73.01-1.13.07v-1.59Z"/><path class="cls-6" d="m131.84,65.46c.07-.47.1-.94.1-1.56v-6.61h-.58c-.44,0-.79.02-1.24.07v-1.52c.37.06.64.07,1.2.07h1.1c.61,0,.79-.01,1.22-.06-.07.71-.1,1.26-.1,1.98v6.07c0,.64.02,1.07.1,1.56h-1.81Z"/></g></g><rect class="cls-2" x="50.99" y="65.8" width="47" height="30" rx="5" ry="5"/><path class="cls-6" d="m73.47,74.26c1.14,0,2.06-.92,2.06-2.06s-.92-2.06-2.06-2.06-2.06.92-2.06,2.06.92,2.06,2.06,2.06Zm-.73.54c-1.58.23-2.87,1.51-2.87,3.1,0,.26.21.48.48-.1h6.25c.26.58.48.36.48.1,0-1.58-1.28-2.87-2.87-3.1h-1.47Z"/><g class="cls-5"><g class="cls-5"><path class="cls-6" d="m69.47,91.29c-.07-.4-.2-.91-.34-1.26l-.48-1.31h-3.84l-.48,1.31c-.22.58-.26.76-.36,1.26h-1.97c.18-.32.42-.86.64-1.42l2.64-6.92c.23-.6.32-.9.38-1.21h2.09c.06.29.13.48.41,1.21l2.66,6.92c.3.77.44,1.1.61,1.42h-1.97Zm-2.53-7.5c-.05-.13-.08-.28-.22-.67q-.19.56-.23.67l-1.25,3.55h2.97l-1.28-3.55Z"/><path class="cls-6" d="m71.98,86.85c.35.05.65.07,1.13.07h1.86c.49,0,.79-.02,1.14-.07v1.59c-.4-.06-.65-.07-1.14-.07h-1.86c-.47,0-.73.01-1.13.07v-1.59Z"/><path class="cls-6" d="m80.08,91.29c.07-.47.1-.94.1-1.56v-6.61h-.58c-.44,0-.79.02-1.24.07v-1.52c.37.06.64.07,1.2.07h1.1c.61,0,.79-.01,1.22-.06-.07.71-.1,1.26-.1,1.98v6.07c0,.64.02,1.07.1,1.56h-1.81Z"/></g></g><rect class="cls-2" x="50.99" y="99.8" width="47" height="30" rx="5" ry="5"/><path class="cls-6" d="m73.47,108.26c1.14,0,2.06-.92,2.06-2.06s-.92-2.06-2.06-2.06-2.06.92-2.06,2.06.92,2.06,2.06,2.06Zm-.73.54c-1.58.23-2.87,1.51-2.87,3.1,0,.26.21.48.48-.1h6.25c.26.58.48.36.48.1,0-1.58-1.28-2.87-2.87-3.1h-1.47Z"/><g class="cls-5"><g class="cls-5"><path class="cls-6" d="m69.47,125.29c-.07-.4-.2-.91-.34-1.26l-.48-1.31h-3.84l-.48,1.31c-.22.58-.26.75-.36,1.26h-1.97c.18-.32.42-.86.64-1.42l2.64-6.92c.23-.6.32-.9.38-1.21h2.09c.06.29.13.48.41,1.21l2.66,6.92c.3.77.44,1.1.61,1.42h-1.97Zm-2.53-7.5c-.05-.13-.08-.28-.22-.67q-.19.56-.23.67l-1.25,3.55h2.97l-1.28-3.55Z"/><path class="cls-6" d="m71.98,120.85c.35.05.65.07,1.13.07h1.86c.49,0,.79-.02,1.14-.07v1.6c-.4-.06-.65-.07-1.14-.07h-1.86c-.47,0-.73.01-1.13.07v-1.6Z"/><path class="cls-6" d="m78.72,125.29c-.94,0-1.13.01-1.55.06.07-.68.16-1.1.31-1.54.32-.88.86-1.64,1.64-2.35.42-.37.78-.65,1.98-1.45,1.1-.75,1.44-1.15,1.44-1.76,0-.82-.64-1.32-1.65-1.32-.7,0-1.22.24-1.52.71-.2.29-.29.55-.37,1.1l-1.72-.2c.17-.91.38-1.4.83-1.92.6-.7,1.55-1.07,2.75-1.07,2.1,0,3.39,1.01,3.39,2.65,0,.79-.26,1.37-.85,1.92-.34.31-.46.41-2.01,1.48-.53.37-1.13.88-1.43,1.2-.36.38-.5.62-.68,1.08h3.36c.76,0,1.36-.04,1.75-.1v1.58c-.56-.05-1.04-.07-1.81-.07h-3.85Z"/></g></g></svg>