<?xml version="1.0" encoding="UTF-8"?><svg id="_レイヤー_1" xmlns="http://www.w3.org/2000/svg" width="101.75mm" height="57.01mm" viewBox="0 0 288.43 161.6"><defs><style>.cls-1{fill:#a2b460;}.cls-1,.cls-2,.cls-3,.cls-4,.cls-5,.cls-6,.cls-7,.cls-8,.cls-9,.cls-10{stroke-width:0px;}.cls-2{fill:#040000;}.cls-3{fill:#ddd;}.cls-4{fill:#b96e68;}.cls-5{fill:#334857;}.cls-6{fill:#fff;}.cls-7{fill:#e2a55b;}.cls-8{fill:#72afbd;}.cls-9{fill:#c66;}.cls-10{fill:#547935;}</style></defs><path class="cls-1" d="m277.4,37.79c-3.26-3.26-9.12-3.15-9.12-3.15H34.71c-5.98,0-11.92-.33-17.43,1.99-.57.24-.85.35-.74.25,0,0-7.22.08-7.29,0h0C2.86,42.55.84,49.39.24,53.86l.04-.25h7.29v54.38H.29l-.04-.25c.6,4.47,2.62,11.31,8.99,16.98h0c.07-.08,7.29,0,7.29,0-.11-.11.17,0,.74.25,5.51,2.33,11.45,1.99,17.43,1.99h233.57s5.86.11,9.12-3.15c3.32-3.32,4.63-7.42,4.63-7.42V45.21s-1.31-4.1-4.63-7.42h.01,0Z"/><rect class="cls-6" x="40" y="34.65" width="220.2" height="92.32"/><path class="cls-7" d="m16.54,36.89h-7.29C2.98,42.47.92,49.15.28,53.63h7.29c.63-4.47,2.7-11.16,8.96-16.74h.01Z"/><path class="cls-7" d="m16.54,124.72h-7.29C2.98,119.14.92,112.47.29,107.99h7.29c.63,4.47,2.7,11.16,8.96,16.74h0Z"/><path class="cls-8" d="m21.08,37.9s-9.61,18.05-10.13,42.91c.52,24.87,10.13,42.91,10.13,42.91l18.92-4.81V42.71s-18.92-4.81-18.92-4.81Z"/><path class="cls-10" d="m7.58,107.99v-54.36H.28c-.42,2.99-.23,4.98-.23,4.98v44.4s-.19,1.88.19,4.74l.04.25h7.3,0Z"/><path class="cls-7" d="m274.32,132.16c5.71-1.38,13.07-5.24,14.09-15.78h-6.39c-.37,6.54-2.32,11.25-7.7,15.78h0Z"/><path class="cls-7" d="m274.32,29.44c5.71,1.38,13.07,5.24,14.09,15.78h-6.39c-.37-6.54-2.32-11.25-7.7-15.78h0Z"/><rect class="cls-10" x="282.03" y="45.22" width="6.39" height="71.18"/><path class="cls-10" d="m282.03,116.4s-1.3,4.1-4.62,7.42-9.13,3.15-9.13,3.15H34.71c-5.99,0-11.92.33-17.43-1.99-.57-.24-.85-.34-.74-.25,0,0-7.22-.07-7.29,0h0c2.62,2.33,5.98,4.47,10.28,6.17,3.49,1.37,7.22,2.03,10.98,2.03h34.87c.9,4.56,2.9,13.71,4.94,15.8,2.03,2.06,12.43.65,1.27-15.8h196.7c1.15,0,3.42-.11,6.05-.76,5.32-4.47,7.28-9.13,7.68-15.56l.02-.22h0Z"/><path class="cls-10" d="m282.03,45.21s-1.3-4.1-4.62-7.42c-3.26-3.26-9.13-3.15-9.13-3.15H34.71c-5.99,0-11.92-.33-17.43,1.99-.57.24-.85.34-.74.25,0,0-7.22.07-7.29,0h0c2.62-2.33,5.98-4.47,10.28-6.17,3.49-1.37,7.22-2.03,10.98-2.03h34.87c.9-4.56,2.9-13.71,4.94-15.8,2.03-2.06,12.43-.65,1.27,15.8h196.7c1.15,0,3.42.11,6.05.76,5.32,4.47,7.28,9.13,7.68,15.56l.02.22h0Z"/><rect class="cls-8" x="260.21" y="49.8" width="8.07" height="62.03"/><rect class="cls-4" x="43.4" y="39.16" width="39.94" height="25.49" rx="5" ry="5"/><rect class="cls-5" x="55.72" y="42.14" width="1.7" height="19.54"/><rect class="cls-5" x="40" y="51.06" width="16.57" height="1.7"/><rect class="cls-3" x="43.4" y="96.95" width="39.94" height="25.49" rx="5" ry="5"/><path class="cls-2" d="m62.92,104.27c.97,0,1.75-.78,1.75-1.75s-.78-1.75-1.75-1.75-1.75.78-1.75,1.75.78,1.75,1.75,1.75Zm-.62.66c-1.35,0-2.44,1.09-2.44,2.44,0,.22.18.41.41.41h5.31c.22,0,.41-.18.41-.41,0-1.35-1.09-2.44-2.44-2.44h-1.25Z"/><path class="cls-2" d="m59.52,118.74c-.06-.34-.17-.78-.29-1.07l-.41-1.11h-3.26l-.41,1.11c-.18.49-.22.64-.31,1.07h-1.67c.15-.28.36-.73.54-1.2l2.24-5.88c.19-.51.28-.76.33-1.03h1.77c.05.24.11.41.35,1.03l2.26,5.88c.25.65.38.94.52,1.2h-1.67,0Zm-2.15-6.37c-.04-.11-.07-.23-.18-.57-.11.32-.17.51-.19.57l-1.06,3.02h2.53l-1.09-3.02h0Z"/><path class="cls-2" d="m61.66,114.97c.3.04.55.06.96.06h1.58c.42,0,.67-.02.97-.06v1.36c-.34-.05-.55-.06-.97-.06h-1.58c-.4,0-.62,0-.96.06,0,0,0-1.36,0-1.36Z"/><path class="cls-2" d="m68.54,118.74c.06-.4.08-.79.08-1.33v-5.62h-.49c-.38,0-.67.02-1.05.06v-1.29c.32.05.54.06,1.02.06h.94c.52,0,.67-.01,1.04-.05-.06.6-.08,1.07-.08,1.68v5.16c0,.54.02.91.08,1.33,0,0-1.54,0-1.54,0Z"/><rect class="cls-3" x="130.04" y="68.06" width="39.94" height="25.49" rx="5" ry="5"/><path class="cls-2" d="m149.57,75.38c.97,0,1.75-.78,1.75-1.75s-.78-1.75-1.75-1.75-1.75.78-1.75,1.75.78,1.75,1.75,1.75Zm-.62.66c-1.35,0-2.44,1.09-2.44,2.44,0,.22.18.41.41.41h5.31c.22,0,.41-.18.41-.41,0-1.35-1.09-2.44-2.44-2.44h-1.25Z"/><path class="cls-2" d="m147.45,87.37c-.19.73-.38,1.13-.68,1.53-.58.71-1.56,1.11-2.78,1.11-1.11,0-2-.34-2.62-.98-.71-.74-1.11-1.9-1.11-3.2s.43-2.53,1.19-3.29c.61-.62,1.53-.97,2.55-.97.8,0,1.4.15,1.96.49.46.29.83.66,1.08,1.11.12.21.19.4.32.79l-1.42.33c-.14-.45-.23-.64-.44-.88-.35-.42-.86-.63-1.49-.63-1.45,0-2.32,1.13-2.32,3.01s.9,3.03,2.32,3.03c.71,0,1.32-.27,1.65-.75.17-.25.26-.47.34-.94l1.46.25h-.01Z"/><path class="cls-2" d="m148.23,86.08c.3.04.55.06.96.06h1.58c.42,0,.67-.02.97-.06v1.36c-.34-.05-.55-.06-.97-.06h-1.58c-.4,0-.62.01-.96.06v-1.36Z"/><path class="cls-2" d="m153.95,89.85c-.79,0-.96.01-1.31.05.06-.58.13-.94.27-1.3.28-.74.73-1.4,1.4-2,.36-.32.66-.55,1.68-1.23.94-.64,1.22-.98,1.22-1.5,0-.69-.54-1.12-1.41-1.12-.59,0-1.04.2-1.29.6-.17.24-.24.47-.32.94l-1.46-.17c.14-.77.33-1.19.7-1.63.51-.59,1.31-.91,2.33-.91,1.78,0,2.88.86,2.88,2.25,0,.67-.22,1.16-.72,1.63-.29.27-.39.35-1.71,1.25-.45.32-.96.74-1.21,1.02-.31.33-.43.53-.58.92h2.85c.64,0,1.15-.03,1.49-.08v1.35c-.48-.04-.89-.06-1.54-.06h-3.27,0Z"/><rect class="cls-3" x="130.04" y="39.16" width="39.94" height="25.49" rx="5" ry="5"/><path class="cls-2" d="m149.57,46.49c.97,0,1.75-.78,1.75-1.75s-.78-1.75-1.75-1.75-1.75.78-1.75,1.75.78,1.75,1.75,1.75Zm-.62.66c-1.35,0-2.44,1.09-2.44,2.44,0,.22.18.41.41.41h5.31c.22,0,.41-.18.41-.41,0-1.35-1.09-2.44-2.44-2.44h-1.25Z"/><path class="cls-2" d="m147.45,58.47c-.19.73-.38,1.13-.68,1.53-.58.71-1.56,1.11-2.78,1.11-1.11,0-2-.34-2.62-.98-.71-.74-1.11-1.9-1.11-3.2s.43-2.53,1.19-3.29c.61-.62,1.53-.97,2.55-.97.8,0,1.4.15,1.96.49.46.29.83.66,1.08,1.11.12.21.19.4.32.79l-1.42.33c-.14-.45-.23-.64-.44-.88-.35-.42-.86-.63-1.49-.63-1.45,0-2.32,1.13-2.32,3.01s.9,3.03,2.32,3.03c.71,0,1.32-.27,1.65-.75.17-.25.26-.47.34-.94l1.46.25h-.01Z"/><path class="cls-2" d="m148.23,57.18c.3.04.55.06.96.06h1.58c.42,0,.67-.02.97-.06v1.36c-.34-.05-.55-.06-.97-.06h-1.58c-.4,0-.62,0-.96.06v-1.36Z"/><path class="cls-2" d="m155.12,60.95c.06-.4.08-.79.08-1.32v-5.62h-.49c-.38,0-.67.02-1.05.06v-1.29c.32.05.54.06,1.02.06h.94c.52,0,.67,0,1.04-.05-.06.6-.08,1.07-.08,1.68v5.16c0,.54.02.91.08,1.32,0,0-1.54,0-1.54,0Z"/><rect class="cls-3" x="130.04" y="96.95" width="39.94" height="25.49" rx="5" ry="5"/><path class="cls-2" d="m149.57,104.27c.97,0,1.75-.78,1.75-1.75s-.78-1.75-1.75-1.75-1.75.78-1.75,1.75.78,1.75,1.75,1.75Zm-.62.66c-1.35,0-2.44,1.09-2.44,2.44,0,.22.18.41.41.41h5.31c.22,0,.41-.18.41-.41,0-1.35-1.09-2.44-2.44-2.44h-1.25Z"/><path class="cls-2" d="m147.45,116.26c-.19.73-.38,1.13-.68,1.53-.58.71-1.56,1.11-2.78,1.11-1.11,0-2-.34-2.62-.98-.71-.74-1.11-1.9-1.11-3.2s.43-2.53,1.19-3.29c.61-.62,1.53-.97,2.55-.97.8,0,1.4.15,1.96.49.46.29.83.66,1.08,1.11.12.21.19.4.32.79l-1.42.33c-.14-.45-.23-.64-.44-.88-.35-.42-.86-.63-1.49-.63-1.45,0-2.32,1.13-2.32,3.01s.9,3.03,2.32,3.03c.71,0,1.32-.27,1.65-.75.17-.25.26-.47.34-.94l1.46.26v-.02Z"/><path class="cls-2" d="m148.23,114.97c.3.04.55.06.96.06h1.58c.42,0,.67-.02.97-.06v1.36c-.34-.05-.55-.06-.97-.06h-1.58c-.4,0-.62,0-.96.06v-1.36Z"/><path class="cls-2" d="m153.96,116.53c.13.47.22.63.48.83.34.27.74.4,1.23.4,1.01,0,1.65-.52,1.65-1.33,0-.47-.21-.86-.57-1.07-.25-.14-.72-.25-1.17-.25s-.74.01-1.09.05v-1.26c.33.04.55.05.99.05,1.02,0,1.62-.47,1.62-1.25,0-.7-.48-1.1-1.35-1.1-.5,0-.87.11-1.11.32-.2.19-.31.37-.43.79l-1.46-.25c.25-.75.49-1.11.97-1.46.52-.38,1.18-.56,2-.56,1.7,0,2.8.86,2.8,2.18,0,.61-.26,1.17-.7,1.5-.22.17-.45.25-.99.4.72.11,1.1.29,1.46.68.34.38.49.8.49,1.41,0,.55-.23,1.11-.61,1.49-.56.54-1.42.83-2.51.83-1.19,0-2.01-.31-2.59-.97-.25-.29-.39-.55-.57-1.14l1.46-.29h0Z"/><rect class="cls-3" x="173.38" y="68.06" width="39.94" height="25.49" rx="5" ry="5"/><path class="cls-2" d="m192.91,75.38c.97,0,1.75-.78,1.75-1.75s-.78-1.75-1.75-1.75-1.75.78-1.75,1.75.78,1.75,1.75,1.75Zm-.62.66c-1.35,0-2.44,1.09-2.44,2.44,0,.22.18.41.41.41h5.31c.22,0,.41-.18.41-.41,0-1.35-1.09-2.44-2.44-2.44h-1.25Z"/><path class="cls-2" d="m190.19,89.92c-.37-.05-.69-.07-1.32-.07h-3.18c-.61,0-.89.01-1.29.03.06-.41.08-.74.08-1.34v-5.51c0-.53-.02-.84-.08-1.31.41.02.67.03,1.29.03h3.08c.51,0,.85-.02,1.31-.07v1.35c-.39-.05-.71-.07-1.31-.07h-2.94v2.1h2.48c.53,0,.88-.02,1.33-.07v1.33c-.42-.06-.69-.07-1.33-.07h-2.49v2.41h3.06c.57,0,.87-.02,1.3-.07v1.36-.03Z"/><path class="cls-2" d="m191.01,86.08c.29.04.55.06.96.06h1.58c.42,0,.67-.02.97-.06v1.36c-.34-.05-.55-.06-.97-.06h-1.58c-.4,0-.62.01-.96.06v-1.36Z"/><path class="cls-2" d="m196.73,89.85c-.79,0-.96.01-1.32.05.06-.58.13-.94.26-1.3.28-.74.73-1.4,1.4-2,.36-.32.66-.55,1.68-1.23.94-.64,1.22-.98,1.22-1.5,0-.69-.54-1.12-1.41-1.12-.59,0-1.04.2-1.29.6-.17.24-.25.47-.32.94l-1.46-.17c.14-.77.33-1.19.7-1.63.51-.59,1.32-.91,2.33-.91,1.78,0,2.88.86,2.88,2.25,0,.67-.22,1.16-.72,1.63-.29.27-.39.35-1.71,1.25-.45.32-.96.74-1.21,1.02-.3.33-.43.53-.58.92h2.85c.64,0,1.15-.03,1.49-.08v1.35c-.48-.04-.89-.06-1.54-.06h-3.27.02Z"/><rect class="cls-3" x="173.38" y="39.16" width="39.94" height="25.49" rx="5" ry="5"/><path class="cls-2" d="m192.91,46.49c.97,0,1.75-.78,1.75-1.75s-.78-1.75-1.75-1.75-1.75.78-1.75,1.75.78,1.75,1.75,1.75Zm-.62.66c-1.35,0-2.44,1.09-2.44,2.44,0,.22.18.41.41.41h5.31c.22,0,.41-.18.41-.41,0-1.35-1.09-2.44-2.44-2.44h-1.25Z"/><path class="cls-2" d="m190.19,61.02c-.37-.05-.69-.07-1.32-.07h-3.18c-.61,0-.89,0-1.29.03.06-.41.08-.74.08-1.35v-5.51c0-.53-.02-.84-.08-1.31.41.02.67.03,1.29.03h3.08c.51,0,.85-.02,1.31-.07v1.35c-.39-.05-.71-.07-1.31-.07h-2.94v2.1h2.48c.53,0,.88-.02,1.33-.07v1.34c-.42-.06-.69-.07-1.33-.07h-2.49v2.41h3.06c.57,0,.87-.02,1.3-.07v1.36-.03Z"/><path class="cls-2" d="m191.01,57.18c.29.04.55.06.96.06h1.58c.42,0,.67-.02.97-.06v1.36c-.34-.05-.55-.06-.97-.06h-1.58c-.4,0-.62,0-.96.06v-1.36Z"/><path class="cls-2" d="m197.89,60.95c.06-.4.08-.79.08-1.32v-5.62h-.49c-.38,0-.67.02-1.05.06v-1.29c.32.05.54.06,1.02.06h.94c.52,0,.67,0,1.04-.05-.06.6-.08,1.07-.08,1.68v5.16c0,.54.02.91.08,1.32,0,0-1.54,0-1.54,0Z"/><rect class="cls-3" x="173.38" y="96.95" width="39.94" height="25.49" rx="5" ry="5"/><path class="cls-2" d="m192.91,104.27c.97,0,1.75-.78,1.75-1.75s-.78-1.75-1.75-1.75-1.75.78-1.75,1.75.78,1.75,1.75,1.75Zm-.62.66c-1.35,0-2.44,1.09-2.44,2.44,0,.22.18.41.41.41h5.31c.22,0,.41-.18.41-.41,0-1.35-1.09-2.44-2.44-2.44h-1.25Z"/><path class="cls-2" d="m190.19,118.81c-.37-.05-.69-.07-1.32-.07h-3.18c-.61,0-.89,0-1.29.03.06-.41.08-.74.08-1.34v-5.52c0-.53-.02-.83-.08-1.31.41.02.67.03,1.29.03h3.08c.51,0,.85-.02,1.31-.07v1.35c-.39-.05-.71-.07-1.31-.07h-2.94v2.1h2.48c.53,0,.88-.02,1.33-.07v1.34c-.42-.06-.69-.07-1.33-.07h-2.49v2.41h3.06c.57,0,.87-.02,1.3-.07v1.36-.03Z"/><path class="cls-2" d="m191.01,114.97c.29.04.55.06.96.06h1.58c.42,0,.67-.02.97-.06v1.36c-.34-.05-.55-.06-.97-.06h-1.58c-.4,0-.62,0-.96.06v-1.36Z"/><path class="cls-2" d="m196.74,116.53c.13.47.22.63.48.83.34.27.74.4,1.23.4,1.01,0,1.65-.52,1.65-1.33,0-.47-.2-.86-.57-1.07-.24-.14-.72-.25-1.17-.25s-.74.01-1.09.05v-1.26c.33.04.55.05.99.05,1.02,0,1.62-.47,1.62-1.25,0-.7-.48-1.1-1.35-1.1-.5,0-.87.11-1.11.32-.21.19-.31.37-.43.79l-1.46-.25c.26-.75.49-1.11.97-1.46.52-.38,1.18-.56,2-.56,1.7,0,2.8.86,2.8,2.18,0,.61-.27,1.17-.7,1.5-.22.17-.45.25-.99.4.72.11,1.1.29,1.46.68.34.38.49.8.49,1.41,0,.55-.23,1.11-.61,1.49-.56.54-1.42.83-2.51.83-1.19,0-2.01-.31-2.59-.97-.25-.29-.39-.55-.57-1.14l1.46-.29h0Z"/><rect class="cls-3" x="86.7" y="68.06" width="39.94" height="25.49" rx="5" ry="5"/><path class="cls-2" d="m106.23,75.38c.97,0,1.75-.78,1.75-1.75s-.78-1.75-1.75-1.75-1.75.78-1.75,1.75.78,1.75,1.75,1.75Zm-.62.66c-1.35,0-2.44,1.09-2.44,2.44,0,.22.18.41.41.41h5.31c.22,0,.41-.18.41-.41,0-1.35-1.09-2.44-2.44-2.44h-1.25Z"/><path class="cls-2" d="m98.69,89.85c-.59,0-.89.01-1.3.03.07-.43.09-.72.09-1.38v-5.54c0-.47-.03-.84-.08-1.25.43.02.59.02,1.28.02h2.41c1.58,0,2.47.71,2.47,1.99,0,.62-.18,1.08-.57,1.44-.22.21-.41.31-.81.43.52.11.75.21,1.03.47.42.39.63.9.63,1.56,0,1.43-.95,2.23-2.64,2.23,0,0-2.51,0-2.51,0Zm2.25-4.79c.77,0,1.23-.42,1.23-1.11,0-.33-.1-.6-.26-.75-.22-.2-.57-.32-.98-.32h-2.11v2.18h2.12Zm-2.12,3.64h2.19c.91,0,1.42-.45,1.42-1.27,0-.41-.1-.68-.33-.89-.25-.22-.64-.35-1.11-.35h-2.17s0,2.51,0,2.51Z"/><path class="cls-2" d="m104.7,86.08c.3.04.55.06.96.06h1.58c.42,0,.67-.02.97-.06v1.36c-.34-.05-.55-.06-.97-.06h-1.58c-.4,0-.62.01-.96.06v-1.36Z"/><path class="cls-2" d="m110.42,89.85c-.79,0-.96.01-1.31.05.06-.58.13-.94.27-1.3.28-.74.73-1.4,1.4-2,.36-.32.66-.55,1.68-1.23.94-.64,1.22-.98,1.22-1.5,0-.69-.54-1.12-1.41-1.12-.59,0-1.04.2-1.29.6-.17.24-.24.47-.32.94l-1.46-.17c.14-.77.33-1.19.7-1.63.51-.59,1.31-.91,2.33-.91,1.78,0,2.88.86,2.88,2.25,0,.67-.22,1.16-.72,1.63-.29.27-.39.35-1.71,1.25-.45.32-.96.74-1.21,1.02-.31.33-.43.53-.58.92h2.85c.64,0,1.15-.03,1.49-.08v1.35c-.48-.04-.89-.06-1.54-.06h-3.27,0Z"/><rect class="cls-3" x="86.7" y="39.16" width="39.94" height="25.49" rx="5" ry="5"/><path class="cls-2" d="m106.23,46.49c.97,0,1.75-.78,1.75-1.75s-.78-1.75-1.75-1.75-1.75.78-1.75,1.75.78,1.75,1.75,1.75Zm-.62.66c-1.35,0-2.44,1.09-2.44,2.44,0,.22.18.41.41.41h5.31c.22,0,.41-.18.41-.41,0-1.35-1.09-2.44-2.44-2.44h-1.25Z"/><path class="cls-2" d="m98.69,60.95c-.59,0-.89,0-1.3.03.07-.43.09-.72.09-1.38v-5.53c0-.47-.03-.84-.08-1.25.43.02.59.02,1.28.02h2.41c1.58,0,2.47.71,2.47,1.99,0,.62-.18,1.08-.57,1.44-.22.21-.41.31-.81.43.52.11.75.21,1.03.47.42.39.63.9.63,1.56,0,1.43-.95,2.23-2.64,2.23h-2.51,0Zm2.25-4.79c.77,0,1.23-.42,1.23-1.11,0-.33-.1-.6-.26-.75-.22-.2-.57-.32-.98-.32h-2.11v2.18h2.12Zm-2.12,3.64h2.19c.91,0,1.42-.45,1.42-1.27,0-.41-.1-.68-.33-.89-.25-.22-.64-.35-1.11-.35h-2.17v2.51Z"/><path class="cls-2" d="m104.7,57.18c.3.04.55.06.96.06h1.58c.42,0,.67-.02.97-.06v1.36c-.34-.05-.55-.06-.97-.06h-1.58c-.4,0-.62,0-.96.06v-1.36Z"/><path class="cls-2" d="m111.58,60.95c.06-.4.08-.79.08-1.32v-5.62h-.49c-.38,0-.67.02-1.05.06v-1.29c.32.05.54.06,1.02.06h.94c.52,0,.67,0,1.04-.05-.06.6-.08,1.07-.08,1.68v5.16c0,.54.02.91.08,1.32,0,0-1.54,0-1.54,0Z"/><rect class="cls-3" x="216.71" y="39.16" width="39.94" height="20.82" rx="5" ry="5"/><path class="cls-2" d="m236.68,45.42c.97,0,1.75-.78,1.75-1.75s-.78-1.75-1.75-1.75-1.75.78-1.75,1.75.78,1.75,1.75,1.75Zm-.62.66c-1.35,0-2.44,1.09-2.44,2.44,0,.22.18.41.41.41h5.31c.22,0,.41-.18.41-.41,0-1.35-1.09-2.44-2.44-2.44h-1.25Z"/><path class="cls-2" d="m230.97,56.1c0,.6.02.9.07,1.22h-1.27c.05-.29.07-.65.07-1.21v-4.48c0-.47-.02-.71-.07-1.1.35.02.56.03,1.08.03h2.38c.54,0,.81-.02,1.16-.06v1.15c-.31-.04-.62-.06-1.16-.06h-2.26v1.8h1.82c.53,0,.82-.02,1.16-.06v1.13c-.31-.04-.64-.06-1.16-.06h-1.82v1.7h0Z"/><path class="cls-2" d="m234.93,54.17c.25.03.46.05.8.05h1.32c.35,0,.56-.02.81-.05v1.13c-.28-.04-.46-.05-.81-.05h-1.32c-.33,0-.52,0-.8.05v-1.13Z"/><path class="cls-2" d="m240.66,57.32c.05-.33.07-.66.07-1.1v-4.68h-.41c-.31,0-.56.02-.88.05v-1.08c.26.04.45.05.85.05h.78c.43,0,.56,0,.87-.04-.05.5-.07.89-.07,1.4v4.3c0,.45.02.76.07,1.1,0,0-1.28,0-1.28,0Z"/><rect class="cls-3" x="216.71" y="59.98" width="39.94" height="20.82" rx="5" ry="5"/><path class="cls-2" d="m236.68,66.24c.97,0,1.75-.78,1.75-1.75s-.78-1.75-1.75-1.75-1.75.78-1.75,1.75.78,1.75,1.75,1.75Zm-.62.66c-1.35,0-2.44,1.09-2.44,2.44,0,.22.18.41.41.41h5.31c.22,0,.41-.18.41-.41,0-1.35-1.09-2.44-2.44-2.44h-1.25Z"/><path class="cls-2" d="m230.97,76.91c0,.6.02.9.07,1.22h-1.27c.05-.29.07-.65.07-1.21v-4.48c0-.47-.02-.71-.07-1.1.35.02.56.03,1.08.03h2.38c.54,0,.81-.02,1.16-.06v1.15c-.31-.04-.62-.06-1.16-.06h-2.26v1.8h1.82c.53,0,.82-.02,1.16-.06v1.13c-.31-.04-.64-.06-1.16-.06h-1.82v1.7h0Z"/><path class="cls-2" d="m234.93,74.99c.25.03.46.05.8.05h1.32c.35,0,.56-.02.81-.05v1.13c-.28-.04-.46-.05-.81-.05h-1.32c-.33,0-.52,0-.8.05v-1.13Z"/><path class="cls-2" d="m239.7,78.14c-.66,0-.8,0-1.1.04.05-.48.11-.78.22-1.09.23-.62.61-1.16,1.17-1.67.3-.26.55-.46,1.4-1.03.78-.54,1.02-.82,1.02-1.25,0-.58-.45-.93-1.17-.93-.49,0-.87.17-1.08.5-.14.2-.2.39-.26.78l-1.21-.14c.12-.65.27-.99.59-1.36.42-.49,1.1-.76,1.95-.76,1.49,0,2.41.71,2.41,1.88,0,.56-.19.97-.6,1.36-.24.22-.32.29-1.43,1.05-.37.26-.8.62-1.01.85-.25.27-.36.44-.48.77h2.38c.54,0,.96-.03,1.24-.07v1.12c-.4-.03-.74-.05-1.28-.05h-2.76Z"/><rect class="cls-3" x="216.71" y="80.81" width="39.94" height="20.82" rx="5" ry="5"/><path class="cls-2" d="m236.68,87.07c.97,0,1.75-.78,1.75-1.75s-.78-1.75-1.75-1.75-1.75.78-1.75,1.75.78,1.75,1.75,1.75Zm-.62.66c-1.35,0-2.44,1.09-2.44,2.44,0,.22.18.41.41.41h5.31c.22,0,.41-.18.41-.41,0-1.35-1.09-2.44-2.44-2.44h-1.25Z"/><path class="cls-2" d="m230.97,97.74c0,.6.02.9.07,1.22h-1.27c.05-.29.07-.65.07-1.21v-4.48c0-.47-.02-.71-.07-1.1.35.02.56.03,1.08.03h2.38c.54,0,.81-.02,1.16-.06v1.15c-.31-.04-.62-.06-1.16-.06h-2.26v1.8h1.82c.53,0,.82-.02,1.16-.06v1.13c-.31-.04-.64-.06-1.16-.06h-1.82v1.7h0Z"/><path class="cls-2" d="m234.93,95.82c.25.03.46.05.8.05h1.32c.35,0,.56-.02.81-.05v1.13c-.28-.04-.46-.05-.81-.05h-1.32c-.33,0-.52,0-.8.05v-1.13Z"/><path class="cls-2" d="m239.7,97.12c.11.39.19.53.4.7.28.22.62.33,1.03.33.84,0,1.38-.43,1.38-1.11,0-.39-.17-.71-.48-.89-.2-.12-.6-.2-.98-.2s-.62,0-.91.04v-1.05c.27.03.46.04.82.04.85,0,1.35-.39,1.35-1.05,0-.59-.4-.92-1.12-.92-.42,0-.72.09-.93.26-.17.16-.26.31-.36.65l-1.21-.2c.21-.63.41-.93.81-1.21.43-.31.99-.47,1.67-.47,1.42,0,2.34.71,2.34,1.82,0,.51-.22.98-.59,1.25-.19.14-.37.21-.83.33.6.09.92.24,1.22.57.28.31.41.67.41,1.17,0,.46-.2.93-.51,1.24-.47.45-1.18.69-2.09.69-.99,0-1.67-.25-2.16-.81-.21-.24-.32-.46-.48-.95l1.21-.24h0Z"/><rect class="cls-3" x="216.71" y="101.63" width="39.94" height="20.82" rx="5" ry="5"/><path class="cls-2" d="m236.68,107.89c.97,0,1.75-.78,1.75-1.75s-.78-1.75-1.75-1.75-1.75.78-1.75,1.75.78,1.75,1.75,1.75Zm-.62.66c-1.35,0-2.44,1.09-2.44,2.44,0,.22.18.41.41.41h5.31c.22,0,.41-.18.41-.41,0-1.35-1.09-2.44-2.44-2.44h-1.25Z"/><path class="cls-2" d="m230.97,118.56c0,.6.02.9.07,1.22h-1.27c.05-.29.07-.65.07-1.21v-4.48c0-.47-.02-.71-.07-1.11.35.02.56.03,1.08.03h2.38c.54,0,.81-.02,1.16-.06v1.15c-.31-.04-.62-.06-1.16-.06h-2.26v1.8h1.82c.53,0,.82-.02,1.16-.06v1.13c-.31-.04-.64-.06-1.16-.06h-1.82v1.7h0Z"/><path class="cls-2" d="m234.93,116.64c.25.03.46.05.8.05h1.32c.35,0,.56-.02.81-.05v1.13c-.28-.04-.46-.05-.81-.05h-1.32c-.33,0-.52,0-.8.05v-1.13Z"/><path class="cls-2" d="m243.99,118.27c-.32-.04-.49-.05-.85-.06h-.31v.6c0,.43.02.65.07.97h-1.21c.05-.3.07-.56.07-.99v-.59h-2.35c-.5,0-.77,0-1.06.03v-1.05c.29-.31.38-.42.68-.78l2.01-2.46c.37-.45.51-.63.71-.93h1.15c-.05.49-.06.79-.06,1.44v2.79h.3c.34,0,.54-.02.86-.06v1.09h0Zm-2.22-2.78c0-.4,0-.67.04-1.02-.17.25-.27.38-.58.76l-1.63,2.02h2.17v-1.76h0Z"/><rect class="cls-9" x="61.91" y="84.36" width="3" height="50.68" transform="translate(-58.99 76.97) rotate(-45)"/></svg>